<?xml version="1.0" encoding="UTF-8"?>
<svg width="138px" height="29px" viewBox="0 0 138 29" version="1.1" xmlns="http://www.w3.org/2000/svg" xmlns:xlink="http://www.w3.org/1999/xlink">
    <!-- Generator: Sketch 52.5 (67469) - http://www.bohemiancoding.com/sketch -->
    <title>JOULE</title>
    <desc>Created with Sketch.</desc>
    <g id="Website" stroke="none" stroke-width="1" fill="none" fill-rule="evenodd">
        <g id="Final-Web-Home" transform="translate(-94.000000, -2964.000000)" fill="#FFFFFF">
            <g id="Group-44-Copy-5" transform="translate(16.000000, 2617.000000)">
                <g id="Bitmap-Copy-2">
                    <g id="Group-51" transform="translate(70.000000, 337.000000)">
                        <g id="Group-48">
                            <path d="M8,30.4064953 L10.3826793,30.4064953 C10.8054127,34.0189445 13.1496617,36.2479026 16.7236806,36.2479026 C20.2976996,36.2479026 23.064682,34.2495264 23.064682,29.2535859 L23.064682,10.4227334 L25.3705007,10.4227334 L25.3705007,29.2535859 C25.3705007,35.4792963 21.5658999,38.4 16.7236806,38.4 C11.8046008,38.4 8.38430311,35.2487145 8,30.4064953 Z M46.9299055,10 C53.9626524,10 59.1507444,15.7645467 59.1507444,24.2192152 C59.1507444,32.6738836 53.9626524,38.4 46.9299055,38.4 C39.8971585,38.4 34.7090665,32.6738836 34.7090665,24.2192152 C34.7090665,15.7645467 39.8971585,10 46.9299055,10 Z M46.9299055,12.1520974 C41.0884982,12.1520974 37.0533155,17.1096076 37.0533155,24.2192152 C37.0533155,31.3288227 41.0884982,36.2479026 46.9299055,36.2479026 C52.7713128,36.2479026 56.7680651,31.3288227 56.7680651,24.2192152 C56.7680651,17.1096076 52.7713128,12.1520974 46.9299055,12.1520974 Z M89.6259814,10.4227334 L89.6259814,27.1399188 C89.6259814,34.7491204 84.9759138,38.4 79.0192155,38.4 C73.1393779,38.4 68.4893102,34.7491204 68.4893102,27.1399188 L68.4893102,10.4227334 L70.7951289,10.4227334 L70.7951289,26.8324763 C70.7951289,33.2887686 74.2538569,36.2863329 79.0192155,36.2863329 C83.7845741,36.2863329 87.3201627,33.2887686 87.3201627,26.8324763 L87.3201627,10.4227334 L89.6259814,10.4227334 Z M100.809202,38.0156969 L100.809202,10.4227334 L103.115021,10.4227334 L103.115021,35.9020298 L118.102842,35.9020298 L118.102842,38.0156969 L100.809202,38.0156969 Z M128.017863,10.4227334 L145.157782,10.4227334 L145.157782,12.5364005 L130.285251,12.5364005 L130.285251,22.7588633 L143.73586,22.7588633 L143.73586,24.8341001 L130.285251,24.8341001 L130.285251,35.9020298 L145.157782,35.9020298 L145.157782,38.0156969 L128.017863,38.0156969 L128.017863,10.4227334 Z" id="JOULE"></path>
                        </g>
                    </g>
                </g>
            </g>
        </g>
    </g>
</svg>