<svg xmlns="http://www.w3.org/2000/svg" width="148" height="39" viewBox="0 0 148 39">
    <defs>
        <radialGradient id="j3iu4g0dga" cx="97.42%" cy="11.252%" r="583.38%" fx="97.42%" fy="11.252%" gradientTransform="scale(-.20588 -1) rotate(-11.963 -2.953 27.23)">
            <stop offset="0%" stop-color="#9C66FF"/>
            <stop offset="100%" stop-color="#0FF"/>
        </radialGradient>
    </defs>
    <g fill="none" fill-rule="evenodd">
        <g fill-rule="nonzero">
            <g>
                <g>
                    <path fill="#FFF" d="M8.652 24.78c3.07 0 5.384-.87 6.942-2.61 1.559-1.739 2.338-3.945 2.338-6.618V.518h-5.059V2.35c-.302-.553-.86-1.048-1.674-1.486-.814-.438-1.861-.657-3.14-.657-2.326 0-4.25.824-5.774 2.471C.762 4.326 0 6.302 0 8.606c0 2.396.768 4.389 2.303 5.979 1.535 1.59 3.453 2.384 5.756 2.384 2.233 0 3.78-.645 4.64-1.935v.795c0 2.926-1.43 4.389-4.291 4.389-.977 0-1.797-.265-2.46-.795s-1.087-1.221-1.273-2.074L0 18.663c.256 1.659 1.169 3.093 2.739 4.303 1.57 1.21 3.54 1.814 5.913 1.814zm.384-12.373c-1.093 0-1.989-.345-2.687-1.037-.697-.69-1.046-1.612-1.046-2.764 0-1.13.366-2.045 1.099-2.748.732-.703 1.61-1.054 2.634-1.054 1.023 0 1.895.351 2.616 1.054.721.703 1.082 1.619 1.082 2.748 0 1.152-.343 2.073-1.03 2.764-.686.692-1.575 1.037-2.668 1.037zm16.974 5.288v-7.5c0-1.59.378-2.764 1.134-3.525.756-.76 1.727-1.14 2.913-1.14.628 0 1.186.057 1.675.173V.518c-.396-.115-.86-.172-1.396-.172-.86 0-1.72.195-2.581.587-.861.392-1.5 1.025-1.92 1.901V.518h-5.128v17.177h5.303zm12.335.484c2.256 0 3.884-.807 4.884-2.42 0 .83.058 1.475.174 1.936h4.78c-.14-.691-.21-1.578-.21-2.661V6.636c0-1.936-.622-3.526-1.866-4.77C44.863.622 42.927 0 40.3 0c-2.326 0-4.146.593-5.46 1.78-1.314 1.186-2.03 2.494-2.146 3.923l4.605.933c.047-.692.332-1.285.855-1.78.523-.496 1.227-.743 2.11-.743.791 0 1.414.178 1.867.535.454.358.68.801.68 1.331 0 .668-.418 1.06-1.256 1.175l-4.081.622c-1.512.23-2.745.79-3.698 1.676-.954.887-1.43 2.057-1.43 3.508 0 1.429.54 2.656 1.622 3.681 1.081 1.025 2.54 1.538 4.378 1.538zm1.29-3.802c-.697 0-1.215-.173-1.552-.518-.337-.346-.506-.76-.506-1.244 0-1.06.652-1.694 1.954-1.901l3.28-.519v.76c0 1.222-.303 2.097-.908 2.627-.604.53-1.36.795-2.267.795zm16.417 9.885v-7.915c.954 1.152 2.524 1.728 4.71 1.728 2.419 0 4.401-.847 5.948-2.54 1.547-1.693 2.32-3.853 2.32-6.48 0-2.627-.727-4.775-2.18-6.446C65.396.94 63.436.104 60.97.104c-1.163 0-2.204.213-3.122.64-.919.425-1.576.938-1.971 1.537V.518h-5.129v23.744h5.303zm3.838-10.887c-1.093 0-2.018-.374-2.774-1.123-.756-.75-1.134-1.803-1.134-3.163 0-1.359.378-2.407 1.134-3.145.756-.737 1.68-1.106 2.774-1.106 1.116 0 2.052.37 2.808 1.106.756.738 1.134 1.786 1.134 3.145 0 1.36-.384 2.42-1.151 3.18-.745.737-1.675 1.106-2.791 1.106zm16.172 10.887v-7.915c.953 1.152 2.523 1.728 4.71 1.728 2.418 0 4.401-.847 5.948-2.54 1.546-1.693 2.32-3.853 2.32-6.48 0-2.627-.727-4.775-2.18-6.446C85.405.94 83.445.104 80.98.104c-1.162 0-2.203.213-3.121.64-.92.425-1.576.938-1.972 1.537V.518H70.76v23.744h5.303zm3.837-10.887c-1.093 0-2.017-.374-2.773-1.123-.756-.75-1.134-1.803-1.134-3.163 0-1.359.378-2.407 1.134-3.145.756-.737 1.68-1.106 2.773-1.106 1.117 0 2.053.37 2.809 1.106.756.738 1.134 1.786 1.134 3.145 0 1.36-.384 2.42-1.152 3.18-.744.737-1.674 1.106-2.79 1.106zm17.254 4.7c.954 0 1.86-.178 2.721-.535.86-.358 1.5-.882 1.919-1.573 0 .737.047 1.313.14 1.728h5.093c-.116-.922-.174-1.947-.174-3.076V.52h-5.303v9.78c0 .876-.262 1.584-.785 2.126-.523.541-1.227.812-2.11.812-.908 0-1.6-.277-2.077-.83-.476-.553-.715-1.267-.715-2.142V.518H90.56V11.37c0 1.913.588 3.508 1.762 4.787 1.175 1.279 2.785 1.918 4.832 1.918zm18.58.138c2.186 0 3.883-.57 5.093-1.71 1.21-1.14 1.814-2.506 1.814-4.096 0-1.313-.454-2.454-1.36-3.421-.908-.968-2.233-1.625-3.978-1.97L115 6.566c-.907-.16-1.36-.587-1.36-1.278 0-.438.185-.795.557-1.072.373-.276.814-.414 1.326-.414.768 0 1.355.196 1.762.587.407.392.645.899.715 1.52l4.396-.794c-.116-1.267-.739-2.437-1.867-3.508C119.401.536 117.71 0 115.453 0c-1.907 0-3.494.553-4.762 1.659-1.267 1.106-1.901 2.454-1.901 4.044 0 1.29.419 2.401 1.256 3.335.837.933 2.14 1.584 3.907 1.952l1.989.45c1.14.253 1.71.725 1.71 1.417 0 .414-.175.766-.524 1.054-.349.288-.849.432-1.5.432-.86 0-1.518-.225-1.971-.674-.454-.45-.704-.997-.75-1.642l-4.5.795c.046.53.203 1.083.47 1.659.268.576.663 1.158 1.186 1.745.524.588 1.28 1.066 2.268 1.435.988.368 2.122.552 3.401.552z" transform="translate(-653 -62) translate(602 62) translate(51)"/>
                    <g fill="url(#j3iu4g0dga)" font-family="MightyBrush, Mighty Brush" font-size="15.96" letter-spacing=".84" transform="translate(-653 -62) translate(602 62) translate(51) translate(77.74 15.389)">
                        <text transform="rotate(-7 35.289 11.2)">
                            <tspan x="1.381" y="16.199">Concepts</tspan>
                        </text>
                    </g>
                </g>
            </g>
        </g>
    </g>
</svg>
