<?xml version="1.0" encoding="UTF-8"?>
<svg width="1441px" height="582px" viewBox="0 0 1441 582" version="1.1" xmlns="http://www.w3.org/2000/svg" xmlns:xlink="http://www.w3.org/1999/xlink">
    <!-- Generator: Sketch 62 (91390) - https://sketch.com -->
    <title>mr-glasses-fade</title>
    <desc>Created with Sketch.</desc>
    <defs>
        <polygon id="path-1" points="0 0 1441 0 1441 638 0 638"></polygon>
        <path d="M447.792,162.8 C421.774,162.793 395.872,186.702 370.084,234.525 C331.403,306.259 317.797,376.665 165.437,359.399 C13.076,342.133 17.199,317.405 5.857,254.747 C-5.484,192.089 4.207,106.777 6.752,85.765 C7.949,75.887 11.437,53.185 30.042,35.249 C51.012,15.032 90.739,0.014 159.503,0.014 L343.493,0.014 C353.608,-0.232 360.569,2.844 364.375,9.241 C370.085,18.838 377.732,22.245 398.708,22.245 L447.792,22.245" id="path-3"></path>
        <path d="M447.792,162.8 C421.774,162.793 395.872,186.702 370.084,234.525 C331.403,306.259 317.797,376.665 165.437,359.399 C13.076,342.133 17.199,317.405 5.857,254.747 C-5.484,192.089 4.207,106.777 6.752,85.765 C7.949,75.887 11.437,53.185 30.042,35.249 C51.012,15.032 90.739,0.014 159.503,0.014 L343.493,0.014 C353.608,-0.232 360.569,2.844 364.375,9.241 C370.085,18.838 377.732,22.245 398.708,22.245 L447.792,22.245" id="path-5"></path>
    </defs>
    <g id="Page-1" stroke="none" stroke-width="1" fill="none" fill-rule="evenodd" opacity="0.502">
        <g id="mr-glasses-fade" transform="translate(0.000000, -29.000000)">
            <g id="Group">
                <g id="Clipped">
                    <g>
                        <g>
                            <mask id="mask-2" fill="white">
                                <use xlink:href="#path-1"></use>
                            </mask>
                            <g id="yzhhva3osa"></g>
                            <g id="Group" opacity="0.624" mask="url(#mask-2)">
                                <g transform="translate(-175.000000, 30.000000)">
                                    <g>
                                        <g>
                                            <circle id="Oval" stroke="#979797" stroke-width="0.619" cx="721.634" cy="289.235" r="98.453"></circle>
                                            <g transform="translate(446.599000, 109.275000)">
                                                <g id="d711icbjid-link" stroke="#FFFFFF" stroke-width="0.619">
                                                    <path d="M447.792,162.8 C421.774,162.793 395.872,186.702 370.084,234.525 C331.403,306.259 317.797,376.665 165.437,359.399 C13.076,342.133 17.199,317.405 5.857,254.747 C-5.484,192.089 4.207,106.777 6.752,85.765 C7.949,75.887 11.437,53.185 30.042,35.249 C51.012,15.032 90.739,0.014 159.503,0.014 L343.493,0.014 C353.608,-0.232 360.569,2.844 364.375,9.241 C370.085,18.838 377.732,22.245 398.708,22.245 L447.792,22.245" id="d711icbjid"></path>
                                                </g>
                                                <g id="Clipped">
                                                    <mask id="mask-4" fill="white">
                                                        <use xlink:href="#path-3"></use>
                                                    </mask>
                                                    <g id="d711icbjid"></g>
                                                    <circle id="Oval" stroke="#FFFFFF" stroke-width="0.619" mask="url(#mask-4)" cx="275.035" cy="179.96" r="129.413"></circle>
                                                </g>
                                            </g>
                                            <circle id="Oval" stroke="#FFFFFF" stroke-width="0.619" cx="721.634" cy="289.235" r="98.453"></circle>
                                            <circle id="Oval" stroke="#FFFFFF" stroke-width="0.619" cx="721.634" cy="289.235" r="109.598"></circle>
                                            <path d="M894.39,214.973 L887.42,214.973 C884.684,214.973 882.466,212.756 882.466,210.02 L882.466,180.175 C882.466,177.439 884.684,175.221 887.42,175.221 L894.39,175.221" id="Path" stroke="#FFFFFF" stroke-width="0.619"></path>
                                            <path d="M894.9,96.745 L605.133,96.745 C508.485,100.853 454.726,127.012 443.856,175.221 C427.551,247.536 431.933,356.177 452.32,418.648 C472.707,481.119 636.937,487.847 675.863,484.013 C714.79,480.18 770.127,467.408 802.762,384.137 C820.45,339.005 841.012,324.293 864.447,340.001 C876.192,351.273 875.519,370.884 862.427,398.834 C842.79,440.759 798.083,543.717 741.697,563.072 C685.312,582.426 521.302,596.125 424.64,545.702 C360.198,512.086 325.213,441.076 319.685,332.672 C321.538,146.79 364.5,41.702 448.567,17.41 C513.506,-1.357 526.183,0.023 650.042,0.023 L894.9,0.023" id="Path" stroke="#FFFFFF" stroke-width="0.619"></path>
                                            <path d="M0,4.035 L334.437,94.843 C343.16,99.747 346.59,107.311 344.727,117.537 C341.931,132.875 316.553,179.228 313.954,315.651 C302.698,305.571 198.961,278.018 2.743,232.991" id="Path" stroke="#FFFFFF" stroke-width="0.619"></path>
                                            <path d="M310.12,88.19 C316.685,73.838 325.52,69.248 336.622,74.42 C347.725,79.591 352.68,85.517 351.487,92.195 L350.007,110.316 C345.359,118.834 342.331,125.515 340.921,130.36" id="Path" stroke="#FFFFFF" stroke-width="0.619"></path>
                                            <path d="M345.218,110.08 C347.424,101.732 346.236,95.623 341.657,91.752 C337.077,87.881 331.224,87.881 324.098,91.752 M299.149,85.11 C307.134,74.62 316.109,69.874 326.075,70.87 C336.04,71.866 343.82,76.123 349.415,83.64 M275.618,301.492 C276.531,306.022 280.17,309.514 286.533,311.969 C296.079,315.651 313.815,322.186 313.815,328.524 C314,322.341 314.045,318.049 313.954,315.651" id="Shape" stroke="#FFFFFF" stroke-width="0.619"></path>
                                            <path d="M264.557,297.68 C266.932,307.512 273.756,314.094 285.029,317.425 C301.94,322.422 313.885,328.67 313.885,334.595 L313.885,325.255 M302.681,324.883 C306.241,417.957 340.509,487.733 405.488,534.211 M351.66,88.849 C365.388,73.267 377.902,62.003 389.202,55.059 M848.395,333.86 C860.178,317.558 875.679,309.407 894.9,309.407 M850.538,334.639 C864.778,320.053 879.566,313.153 894.9,313.941 M853.958,335.14 C867.236,325.622 880.714,320.864 894.391,320.864" id="Shape" stroke="#FFFFFF" stroke-width="0.619"></path>
                                        </g>
                                        <g transform="translate(1340.956000, 290.500000) scale(-1, 1) translate(-1340.956000, -290.500000) translate(893.456000, 0.000000)">
                                            <circle id="Oval" stroke="#979797" stroke-width="0.619" cx="721.634" cy="289.235" r="98.453"></circle>
                                            <g transform="translate(446.599000, 109.275000)">
                                                <g id="o22zpdldof-link" stroke="#FFFFFF" stroke-width="0.619">
                                                    <path d="M447.792,162.8 C421.774,162.793 395.872,186.702 370.084,234.525 C331.403,306.259 317.797,376.665 165.437,359.399 C13.076,342.133 17.199,317.405 5.857,254.747 C-5.484,192.089 4.207,106.777 6.752,85.765 C7.949,75.887 11.437,53.185 30.042,35.249 C51.012,15.032 90.739,0.014 159.503,0.014 L343.493,0.014 C353.608,-0.232 360.569,2.844 364.375,9.241 C370.085,18.838 377.732,22.245 398.708,22.245 L447.792,22.245" id="o22zpdldof"></path>
                                                </g>
                                                <g id="Clipped">
                                                    <mask id="mask-6" fill="white">
                                                        <use xlink:href="#path-5"></use>
                                                    </mask>
                                                    <g id="o22zpdldof"></g>
                                                    <circle id="Oval" stroke="#FFFFFF" stroke-width="0.619" mask="url(#mask-6)" cx="275.035" cy="179.96" r="129.413"></circle>
                                                </g>
                                            </g>
                                            <circle id="Oval" stroke="#FFFFFF" stroke-width="0.619" cx="721.634" cy="289.235" r="98.453"></circle>
                                            <circle id="Oval" stroke="#FFFFFF" stroke-width="0.619" cx="721.634" cy="289.235" r="109.598"></circle>
                                            <path d="M894.39,214.973 L887.42,214.973 C884.684,214.973 882.466,212.756 882.466,210.02 L882.466,180.175 C882.466,177.439 884.684,175.221 887.42,175.221 L894.39,175.221" id="Path" stroke="#FFFFFF" stroke-width="0.619"></path>
                                            <path d="M894.9,96.745 L605.133,96.745 C508.485,100.853 454.726,127.012 443.856,175.221 C427.551,247.536 431.933,356.177 452.32,418.648 C472.707,481.119 636.937,487.847 675.863,484.013 C714.79,480.18 770.127,467.408 802.762,384.137 C820.45,339.005 841.012,324.293 864.447,340.001 C876.192,351.273 875.519,370.884 862.427,398.834 C842.79,440.759 798.083,543.717 741.697,563.072 C685.312,582.426 521.302,596.125 424.64,545.702 C360.198,512.086 325.213,441.076 319.685,332.672 C321.538,146.79 364.5,41.702 448.567,17.41 C513.506,-1.357 526.183,0.023 650.042,0.023 L894.9,0.023" id="Path" stroke="#FFFFFF" stroke-width="0.619"></path>
                                            <path d="M0,4.035 L334.437,94.843 C343.16,99.747 346.59,107.311 344.727,117.537 C341.931,132.875 316.553,179.228 313.954,315.651 C302.698,305.571 198.961,278.018 2.743,232.991" id="Path" stroke="#FFFFFF" stroke-width="0.619"></path>
                                            <path d="M310.12,88.19 C316.685,73.838 325.52,69.248 336.622,74.42 C347.725,79.591 352.68,85.517 351.487,92.195 L350.007,110.316 C345.359,118.834 342.331,125.515 340.921,130.36" id="Path" stroke="#FFFFFF" stroke-width="0.619"></path>
                                            <path d="M345.218,110.08 C347.424,101.732 346.236,95.623 341.657,91.752 C337.077,87.881 331.224,87.881 324.098,91.752 M299.149,85.11 C307.134,74.62 316.109,69.874 326.075,70.87 C336.04,71.866 343.82,76.123 349.415,83.64 M275.618,301.492 C276.531,306.022 280.17,309.514 286.533,311.969 C296.079,315.651 313.815,322.186 313.815,328.524 C314,322.341 314.045,318.049 313.954,315.651" id="Shape" stroke="#FFFFFF" stroke-width="0.619"></path>
                                            <path d="M264.557,297.68 C266.932,307.512 273.756,314.094 285.029,317.425 C301.94,322.422 313.885,328.67 313.885,334.595 L313.885,325.255 M302.681,324.883 C306.241,417.957 340.509,487.733 405.488,534.211 M351.66,88.849 C365.388,73.267 377.902,62.003 389.202,55.059 M848.395,333.86 C860.178,317.558 875.679,309.407 894.9,309.407 M850.538,334.639 C864.778,320.053 879.566,313.153 894.9,313.941 M853.958,335.14 C867.236,325.622 880.714,320.864 894.391,320.864" id="Shape" stroke="#FFFFFF" stroke-width="0.619"></path>
                                        </g>
                                    </g>
                                </g>
                            </g>
                        </g>
                    </g>
                </g>
            </g>
        </g>
    </g>
</svg>