<?xml version="1.0" encoding="UTF-8"?>
<svg width="96px" height="20px" viewBox="0 0 96 20" version="1.1" xmlns="http://www.w3.org/2000/svg" xmlns:xlink="http://www.w3.org/1999/xlink">
    <!-- Generator: Sketch 52.5 (67469) - http://www.bohemiancoding.com/sketch -->
    <title>grappus</title>
    <desc>Created with Sketch.</desc>
    <g id="Website" stroke="none" stroke-width="1" fill="none" fill-rule="evenodd">
        <g id="Final-Web-Home" transform="translate(-181.000000, -29.000000)" fill="#FFFFFF">
            <path d="M181,44 L184.373353,43.1011236 C184.504539,43.8689177 184.860612,44.4962522 185.441581,44.9831461 C186.02255,45.4700399 186.744066,45.7134831 187.606149,45.7134831 C190.061213,45.7134831 191.288726,44.4307244 191.288726,41.8651685 L191.288726,40.8539326 C190.97013,41.3595531 190.482873,41.7808972 189.82694,42.1179775 C189.171007,42.4550579 188.374529,42.6235955 187.437482,42.6235955 C185.600869,42.6235955 184.06882,41.9868978 182.841288,40.7134831 C181.613757,39.4400685 181,37.838961 181,35.9101124 C181,34.0374438 181.609072,32.4456994 182.827233,31.1348315 C184.045394,29.8239635 185.582128,29.1685393 187.437482,29.1685393 C188.449493,29.1685393 189.292822,29.3511218 189.967496,29.7162921 C190.64217,30.0814625 191.110687,30.5262146 191.37306,31.0505618 L191.37306,29.4213483 L194.971303,29.4213483 L194.971303,41.752809 C194.971303,43.8314711 194.371602,45.5589819 193.172182,46.9353933 C191.972761,48.3118046 190.154917,49 187.718594,49 C185.900723,49 184.378044,48.5131135 183.150512,47.5393258 C181.922981,46.5655382 181.20615,45.3857747 181,44 Z M188.084041,39.4213483 C189.039829,39.4213483 189.822252,39.1029994 190.431332,38.4662921 C191.040413,37.8295848 191.344949,36.9775334 191.344949,35.9101124 C191.344949,34.861418 191.031043,34.0187298 190.403221,33.3820225 C189.7754,32.7453152 189.002347,32.4269663 188.084041,32.4269663 C187.128253,32.4269663 186.33646,32.7453152 185.708638,33.3820225 C185.080817,34.0187298 184.766911,34.861418 184.766911,35.9101124 C184.766911,36.9775334 185.076132,37.8295848 185.694583,38.4662921 C186.313034,39.1029994 187.109512,39.4213483 188.084041,39.4213483 Z M205.723865,29.3651685 L205.723865,33.1292135 C205.349046,33.0543067 204.974233,33.0168539 204.599414,33.0168539 C203.531181,33.0168539 202.66911,33.321158 202.013177,33.9297753 C201.357244,34.5383926 201.029283,35.5355736 201.029283,36.9213483 L201.029283,43.241573 L197.290483,43.241573 L197.290483,29.4213483 L200.916837,29.4213483 L200.916837,31.4719101 C201.591511,30.0299553 202.903358,29.3089888 204.852416,29.3089888 C205.058566,29.3089888 205.349046,29.3277152 205.723865,29.3651685 Z M206.131479,39.4775281 C206.131479,38.2977469 206.515662,37.3520635 207.284041,36.6404494 C208.05242,35.9288354 209.045675,35.4794017 210.263836,35.2921348 L213.6653,34.7865169 C214.358715,34.6928834 214.705417,34.3651713 214.705417,33.8033708 C214.705417,33.2790236 214.503955,32.8483163 214.101025,32.511236 C213.698095,32.1741556 213.121819,32.005618 212.372182,32.005618 C211.585062,32.005618 210.961935,32.2209716 210.502782,32.6516854 C210.043629,33.0823992 209.785945,33.6161017 209.729722,34.252809 L206.412591,33.5505618 C206.543778,32.3520539 207.134109,31.2940121 208.183602,30.3764045 C209.233095,29.4587969 210.619904,29 212.34407,29 C214.405574,29 215.923568,29.4915681 216.898097,30.4747191 C217.872626,31.4578701 218.359883,32.7172208 218.359883,34.252809 L218.359883,41.0505618 C218.359883,41.874536 218.416105,42.6048657 218.528551,43.241573 L215.098975,43.241573 C215.00527,42.829586 214.958419,42.277157 214.958419,41.5842697 C214.077594,42.9513177 212.718896,43.6348315 210.882284,43.6348315 C209.457972,43.6348315 208.310107,43.2228506 207.438653,42.3988764 C206.567199,41.5749022 206.131479,40.6011292 206.131479,39.4775281 Z M211.6694,40.8539326 C212.550224,40.8539326 213.276425,40.6058077 213.848023,40.1095506 C214.419622,39.6132934 214.705417,38.7940132 214.705417,37.6516854 L214.705417,37.0337079 L211.585066,37.511236 C210.441868,37.6797761 209.870278,38.2602947 209.870278,39.252809 C209.870278,39.7022494 210.029574,40.0814591 210.34817,40.3904494 C210.666766,40.6994397 211.107171,40.8539326 211.6694,40.8539326 Z M224.389751,48.5786517 L220.650952,48.5786517 L220.650952,29.4213483 L224.277306,29.4213483 L224.277306,31.1067416 C224.614643,30.544941 225.158122,30.0720993 225.90776,29.6882022 C226.657398,29.3043052 227.528838,29.1123596 228.522108,29.1123596 C230.489907,29.1123596 232.045382,29.7818285 233.18858,31.1207865 C234.331777,32.4597445 234.903368,34.1872553 234.903368,36.3033708 C234.903368,38.4194862 234.298981,40.1610419 233.09019,41.5280899 C231.8814,42.8951379 230.311869,43.5786517 228.381552,43.5786517 C226.54494,43.5786517 225.214353,43.0168596 224.389751,41.8932584 L224.389751,48.5786517 Z M230.236896,39.1966292 C230.892829,38.4850152 231.220791,37.5299685 231.220791,36.3314607 C231.220791,35.1329528 230.897514,34.1872694 230.250952,33.494382 C229.604389,32.8014947 228.784485,32.4550562 227.791215,32.4550562 C226.797945,32.4550562 225.973356,32.8061763 225.317423,33.508427 C224.66149,34.2106777 224.333529,35.1516795 224.333529,36.3314607 C224.333529,37.5112419 224.66149,38.4569253 225.317423,39.1685393 C225.973356,39.8801534 226.797945,40.2359551 227.791215,40.2359551 C228.784485,40.2359551 229.599704,39.8895166 230.236896,39.1966292 Z M240.118009,48.5786517 L236.379209,48.5786517 L236.379209,29.4213483 L240.005564,29.4213483 L240.005564,31.1067416 C240.342901,30.544941 240.88638,30.0720993 241.636018,29.6882022 C242.385655,29.3043052 243.257096,29.1123596 244.250366,29.1123596 C246.218165,29.1123596 247.77364,29.7818285 248.916837,31.1207865 C250.060035,32.4597445 250.631625,34.1872553 250.631625,36.3033708 C250.631625,38.4194862 250.027239,40.1610419 248.818448,41.5280899 C247.609657,42.8951379 246.040127,43.5786517 244.10981,43.5786517 C242.273197,43.5786517 240.94261,43.0168596 240.118009,41.8932584 L240.118009,48.5786517 Z M245.965154,39.1966292 C246.621087,38.4850152 246.949048,37.5299685 246.949048,36.3314607 C246.949048,35.1329528 246.625772,34.1872694 245.979209,33.494382 C245.332647,32.8014947 244.512743,32.4550562 243.519473,32.4550562 C242.526203,32.4550562 241.701614,32.8061763 241.045681,33.508427 C240.389748,34.2106777 240.061786,35.1516795 240.061786,36.3314607 C240.061786,37.5112419 240.389748,38.4569253 241.045681,39.1685393 C241.701614,39.8801534 242.526203,40.2359551 243.519473,40.2359551 C244.512743,40.2359551 245.327962,39.8895166 245.965154,39.1966292 Z M261.103075,43.241573 C261.028111,42.8670393 260.99063,42.3707896 260.99063,41.752809 C260.634552,42.3707896 260.105128,42.8342681 259.402343,43.1432584 C258.699557,43.4522487 257.954616,43.6067416 257.167496,43.6067416 C255.537034,43.6067416 254.253299,43.0870838 253.316252,42.0477528 C252.379205,41.0084218 251.910688,39.7116183 251.910688,38.1573034 L251.910688,29.4213483 L255.649488,29.4213483 L255.649488,37.3988764 C255.649488,38.2228506 255.865005,38.8923195 256.296047,39.4073034 C256.727089,39.9222872 257.354901,40.1797753 258.179502,40.1797753 C258.985363,40.1797753 259.622545,39.9316504 260.091069,39.4353933 C260.559592,38.9391361 260.793851,38.2790303 260.793851,37.4550562 L260.793851,29.4213483 L264.53265,29.4213483 L264.53265,40.741573 C264.53265,41.6217272 264.579502,42.4550522 264.673206,43.241573 L261.103075,43.241573 Z M265.867936,39.3932584 L269.072621,38.6910112 C269.110103,39.2902652 269.349046,39.7911965 269.789458,40.1938202 C270.22987,40.596444 270.834257,40.7977528 271.602635,40.7977528 C272.183605,40.7977528 272.633381,40.666668 272.951977,40.4044944 C273.270573,40.1423208 273.429868,39.8146087 273.429868,39.4213483 C273.429868,38.728461 272.933241,38.2790272 271.939971,38.0730337 L270.112738,37.6516854 C268.819613,37.3707851 267.849784,36.8651722 267.203221,36.1348315 C266.556659,35.4044907 266.233382,34.5337129 266.233382,33.5224719 C266.233382,32.267784 266.725324,31.2003789 267.709224,30.3202247 C268.693123,29.4400705 269.925322,29 271.405857,29 C272.342904,29 273.167493,29.1357664 273.879649,29.4073034 C274.591804,29.6788403 275.144654,30.0252788 275.538214,30.4466292 C275.931774,30.8679796 276.231624,31.2940053 276.437775,31.7247191 C276.643925,32.1554329 276.77511,32.576777 276.831332,32.988764 L273.710981,33.6910112 C273.636017,33.2041174 273.415814,32.7734101 273.050366,32.3988764 C272.684918,32.0243427 272.146124,31.8370787 271.433968,31.8370787 C270.946703,31.8370787 270.529724,31.9681635 270.183016,32.2303371 C269.836309,32.4925107 269.662958,32.8202228 269.662958,33.2134831 C269.662958,33.8876438 270.084622,34.2996247 270.927965,34.4494382 L272.895754,34.8707865 C274.226361,35.1516868 275.243042,35.6666629 275.945827,36.4157303 C276.648613,37.1647978 277,38.0636652 277,39.1123596 C277,40.3483208 276.531483,41.4157258 275.594436,42.3146067 C274.657389,43.2134876 273.336173,43.6629213 271.630747,43.6629213 C270.656218,43.6629213 269.784777,43.5177917 269.016398,43.2275281 C268.24802,42.9372645 267.653004,42.5627364 267.231332,42.1039326 C266.809661,41.6451288 266.49107,41.1863319 266.275549,40.7275281 C266.060028,40.2687243 265.924158,39.8239722 265.867936,39.3932584 Z" id="grappus"></path>
        </g>
    </g>
</svg>