<svg id="Bitmap-Copy" xmlns="http://www.w3.org/2000/svg" width="394" height="385" viewBox="0 0 394 385">
  <path id="Mask" d="M0,0H394V385H0Z" fill="none"/>
  <g id="Group-76">
    <g id="Group_1" data-name="Group 1" transform="translate(34.857)">
      <g id="Group-11" transform="translate(0 292.286)">
        <path id="Rectangle" d="M20,0H148a20,20,0,0,1,0,40H20A20,20,0,0,1,20,0Z" transform="translate(0.143 -0.286)" fill="#fff" fill-rule="evenodd" opacity="0.2"/>
        <g id="Group-40" transform="translate(19 8)">
          <text id="View-case-study" transform="translate(0.143 16.714)" fill="#fff" font-size="15" font-family="Graphik-Semibold, Graphik" font-weight="600" letter-spacing="-0.02em"><tspan x="0" y="0">VIEW CASE STUDY</tspan></text>
        </g>
      </g>
      <g id="Group-80" transform="translate(0 28.286)">
        <text id="JOULE" transform="translate(0 21)" fill="#fff" font-size="21.42" font-family="ArialMT, Arial" letter-spacing="0.01em"><tspan x="0" y="0">JOULE</tspan></text>
        <text id="JOULE-2" data-name="JOULE" transform="translate(0 21)" fill="#fff" font-size="21.42" font-family="ArialMT, Arial" letter-spacing="0.01em" opacity="0.48"><tspan x="0" y="0">JOULE</tspan></text>
      </g>
      <text id="Joule-is-a-digital-s" transform="translate(0 157.857)" fill="#fff" font-size="30.85" font-family="Graphik-Semibold, Graphik" font-weight="600" letter-spacing="-0.02em"><tspan x="0" y="0">Joule is a digital spatial </tspan><tspan x="0" y="35.14">experience that </tspan><tspan x="0" y="70.28">reflects on the user’s </tspan><tspan x="0" y="105.42">real world needs</tspan></text>
      <g id="Group-48-Copy" transform="translate(239.086 32.571)">
        <g id="Group-46" transform="translate(0.374 0.029)">
          <g id="Group" transform="translate(42.662 7.452)">
            <g id="Group-2" data-name="Group">
              <text id="Concepts_" data-name="Concepts " transform="translate(2.267 17.053) rotate(-7)" fill="#c7adff" font-size="12.24" font-family="ArialMT, Arial" letter-spacing="0.01em"><tspan x="0" y="0">Concepts</tspan></text>
            </g>
          </g>
          <path id="grappus" d="M4.746.121A3.9,3.9,0,0,1,6.6.506a2.33,2.33,0,0,1,.986.871h0V.3h2.979V9.11a5.574,5.574,0,0,1-1.377,3.877A5.222,5.222,0,0,1,5.1,14.515a5.558,5.558,0,0,1-3.482-1.063A3.9,3.9,0,0,1,0,10.932H3.115a2.372,2.372,0,0,0,.388.445,2.254,2.254,0,0,0,1.448.466A2.253,2.253,0,0,0,7.479,9.272h0V8.806A3.05,3.05,0,0,1,4.746,9.94a4.53,4.53,0,0,1-3.39-1.4A4.826,4.826,0,0,1,0,5.041,4.92,4.92,0,0,1,1.346,1.569,4.443,4.443,0,0,1,4.746.121Zm.575,2.692A2.168,2.168,0,0,0,3.77,3.43a2.123,2.123,0,0,0-.647,1.609,2.1,2.1,0,0,0,2.2,2.227,2.124,2.124,0,0,0,1.57-.606A2.191,2.191,0,0,0,7.5,5.041,2.144,2.144,0,0,0,5.321,2.814Zm8.958,7.551V5.972a2.815,2.815,0,0,1,.668-2.065,2.19,2.19,0,0,1,1.694-.61h1.007V.3a2.969,2.969,0,0,0-.822-.1,3.66,3.66,0,0,0-1.52.344,2.254,2.254,0,0,0-1.13,1.113V.3h-3.02V10.365Zm7.039.283A3.13,3.13,0,0,0,24.194,9.23v1.134h2.794V3.887a3.772,3.772,0,0,0-1.1-2.794A4.682,4.682,0,0,0,22.469,0a4.64,4.64,0,0,0-3.215,1.043,3.456,3.456,0,0,0-1.264,2.3q2.755,0,2.847,0a1.6,1.6,0,0,1,.368-.5,2.033,2.033,0,0,1,2.342-.121.955.955,0,0,1,.4.779q0,.587-.74.688l-2.4.364a4,4,0,0,0-2.178.982,2.667,2.667,0,0,0-.842,2.055,2.861,2.861,0,0,0,.955,2.156,3.606,3.606,0,0,0,2.576.9Zm.76-2.227a1.23,1.23,0,0,1-.914-.3,1,1,0,0,1-.3-.729q0-.931,1.151-1.113h0l1.931-.3v.445a1.947,1.947,0,0,1-.534,1.539,1.959,1.959,0,0,1-1.334.46Zm8.629,5.79V9.576a3.418,3.418,0,0,0,2.774,1.012,4.543,4.543,0,0,0,3.5-1.488A5.394,5.394,0,0,0,38.35,5.3a5.525,5.525,0,0,0-1.284-3.776,4.779,4.779,0,0,0-5.3-1.093,2.7,2.7,0,0,0-1.161.9h0V.3h-3.02V14.212Zm2.26-6.377a2.238,2.238,0,0,1-1.633-.658,2.483,2.483,0,0,1-.668-1.852,2.449,2.449,0,0,1,.668-1.842,2.257,2.257,0,0,1,1.633-.648,2.283,2.283,0,0,1,1.654.648,2.449,2.449,0,0,1,.668,1.842,2.5,2.5,0,0,1-.678,1.862,2.248,2.248,0,0,1-1.644.65Zm9.1,6.377V9.576a3.418,3.418,0,0,0,2.774,1.012,4.543,4.543,0,0,0,3.5-1.488,5.394,5.394,0,0,0,1.366-3.8,5.525,5.525,0,0,0-1.284-3.776,4.779,4.779,0,0,0-5.3-1.093,2.7,2.7,0,0,0-1.161.9h0V.3H38.94V14.212Zm2.26-6.377a2.239,2.239,0,0,1-1.633-.658,2.483,2.483,0,0,1-.668-1.852,2.449,2.449,0,0,1,.668-1.842,2.257,2.257,0,0,1,1.633-.648,2.283,2.283,0,0,1,1.654.648,2.449,2.449,0,0,1,.668,1.842,2.5,2.5,0,0,1-.678,1.862,2.248,2.248,0,0,1-1.648.65Zm9.834,2.753a4.159,4.159,0,0,0,1.6-.314,2.3,2.3,0,0,0,1.13-.921v1.012H59.87V.3H56.745V6.033a1.711,1.711,0,0,1-.462,1.245,1.653,1.653,0,0,1-1.243.476,1.53,1.53,0,0,1-1.222-.486A1.847,1.847,0,0,1,53.4,6.013V.3H50.274V6.66a3.975,3.975,0,0,0,1.037,2.8,3.682,3.682,0,0,0,2.846,1.128Zm10.411.081a4.216,4.216,0,0,0,3-1,3.176,3.176,0,0,0,1.068-2.4,2.826,2.826,0,0,0-.8-2A4.248,4.248,0,0,0,65.493,4.11l-1.356-.263q-.8-.142-.8-.749a.747.747,0,0,1,.329-.628,1.277,1.277,0,0,1,.781-.243,1.443,1.443,0,0,1,1.038.344,1.377,1.377,0,0,1,.3.429h2.7a3.223,3.223,0,0,0-1.1-2.055A4.209,4.209,0,0,0,64.4,0a4.126,4.126,0,0,0-2.8.972,3.023,3.023,0,0,0-1.12,2.369,2.818,2.818,0,0,0,.74,1.954,4.139,4.139,0,0,0,2.3,1.144l1.171.263q1.007.223,1.007.83a.772.772,0,0,1-.308.617,1.359,1.359,0,0,1-.883.253,1.586,1.586,0,0,1-1.161-.395,1.45,1.45,0,0,1-.336-.5H60.254a2.906,2.906,0,0,0,.277.972,4.246,4.246,0,0,0,.7,1.022,3.291,3.291,0,0,0,1.335.84,5.739,5.739,0,0,0,2,.328Z" fill="#f0e9ff"/>
        </g>
      </g>
    </g>
  </g>
</svg>
