<svg xmlns="http://www.w3.org/2000/svg" xmlns:xlink="http://www.w3.org/1999/xlink" width="315.304" height="303" viewBox="0 0 315.304 303">
  <defs>
    <clipPath id="clip-path">
      <rect id="Rectangle_2" data-name="Rectangle 2" width="77.592" height="26.94" transform="translate(30 38)" fill="#fff"/>
    </clipPath>
  </defs>
  <g id="Group_2" data-name="Group 2" transform="translate(-649 -297)">
    <g id="Group_44" data-name="Group 44" transform="translate(619 259)">
      <path id="Path_1" data-name="Path 1" d="M32.31,128h4.86v-8.85h8.61V128h4.86V106.55H45.78v8.76H37.17v-8.76H32.31Zm29.6.33c4.29,0,6.99-1.89,7.5-5.28H65.3c-.27,1.32-1.26,2.19-3.27,2.19-2.37,0-3.78-1.5-3.9-4.11h11.31v-1.2c0-5.61-3.6-7.98-7.65-7.98a7.789,7.789,0,0,0-8.07,8.16v.24C53.724,125.36,57.174,128.33,61.914,128.33Zm-3.72-9.87c.33-2.22,1.65-3.51,3.6-3.51,2.07,0,3.27,1.14,3.42,3.51ZM72.411,128h4.32V105.2h-4.32Zm8.288,5.34h4.35V125.6a5.483,5.483,0,0,0,5.01,2.73c3.9,0,6.84-2.91,6.84-8.1v-.24c0-5.19-3-8.04-6.84-8.04a5.828,5.828,0,0,0-5.01,2.82v-2.46H80.7Zm8.07-8.4c-2.37,0-3.87-1.53-3.87-4.68v-.24c0-3.15,1.56-4.74,3.84-4.74,2.19,0,3.75,1.56,3.75,4.74v.24C92.489,123.32,91.169,124.94,88.769,124.94ZM99.921,128h4.32V112.31h-4.32Zm2.13-17.82a2.372,2.372,0,1,0-2.46-2.37A2.385,2.385,0,0,0,102.051,110.18ZM108.238,128h4.35v-9.06a3.107,3.107,0,0,1,3.27-3.45c1.92,0,2.76,1.02,2.76,3.15V128h4.35v-9.99c0-4.2-2.19-6.06-5.28-6.06a5.42,5.42,0,0,0-5.1,2.85v-2.49h-4.35Zm25.417,5.79c5.16,0,8.25-2.37,8.28-7.02V112.31h-4.32v2.34a5.272,5.272,0,0,0-4.98-2.7c-3.9,0-6.9,3.15-6.9,7.65v.21c0,4.65,3.03,7.5,6.84,7.5a5.886,5.886,0,0,0,5.04-2.91v2.37c0,2.46-1.32,3.84-3.96,3.84-2.22,0-3.21-.9-3.48-2.28h-4.32C126.275,131.57,128.585,133.79,133.655,133.79Zm.21-9.75c-2.16,0-3.69-1.62-3.69-4.23v-.24c0-2.58,1.35-4.32,3.78-4.32,2.37,0,3.78,1.62,3.78,4.29v.21C137.735,122.42,136.145,124.04,133.865,124.04Zm27.613,4.29c5.79,0,9.06-3.03,9.06-8.88v-12.9h-4.89v12.6c0,3.93-1.26,5.31-4.14,5.31-2.94,0-3.99-1.56-3.99-5.13V106.55h-4.89v13.08C152.628,125.33,155.838,128.33,161.478,128.33Zm22.478,0c3.9,0,6.84-2.91,6.84-8.1v-.24c0-5.19-3-8.04-6.84-8.04a5.828,5.828,0,0,0-5.01,2.82V105.2H174.6V128h4.35v-2.49A5.38,5.38,0,0,0,183.956,128.33Zm-1.29-3.39c-2.37,0-3.87-1.53-3.87-4.68v-.24c0-3.15,1.56-4.74,3.84-4.74,2.19,0,3.75,1.56,3.75,4.74v.24C186.386,123.32,185.066,124.94,182.666,124.94Zm18.261,3.39c4.29,0,6.99-1.89,7.5-5.28h-4.11c-.27,1.32-1.26,2.19-3.27,2.19-2.37,0-3.78-1.5-3.9-4.11h11.31v-1.2c0-5.61-3.6-7.98-7.65-7.98a7.789,7.789,0,0,0-8.07,8.16v.24C192.737,125.36,196.187,128.33,200.927,128.33Zm-3.72-9.87c.33-2.22,1.65-3.51,3.6-3.51,2.07,0,3.27,1.14,3.42,3.51ZM211.3,128h4.35v-7.86c0-3,1.86-4.05,5.07-4.02v-4.05a5.152,5.152,0,0,0-5.07,3.24v-3H211.3Zm19.436,0h4.89V106.55h-4.89Zm9.245,0h4.35v-9.06a3.107,3.107,0,0,1,3.27-3.45c1.92,0,2.76,1.02,2.76,3.15V128h4.35v-9.99c0-4.2-2.19-6.06-5.28-6.06a5.42,5.42,0,0,0-5.1,2.85v-2.49h-4.35Zm24.337.33a5.711,5.711,0,0,0,5.04-2.94V128h4.32V105.2h-4.32v9.45a5.224,5.224,0,0,0-4.95-2.7c-3.93,0-6.9,3.03-6.9,8.19v.24C257.513,125.6,260.513,128.33,264.323,128.33Zm1.29-3.39c-2.16,0-3.66-1.53-3.66-4.65v-.24c0-3.12,1.35-4.77,3.78-4.77,2.37,0,3.75,1.59,3.75,4.71v.24C269.483,123.41,267.893,124.94,265.613,124.94ZM277.665,128h4.32V112.31h-4.32Zm2.13-17.82a2.372,2.372,0,1,0-2.46-2.37A2.385,2.385,0,0,0,279.8,110.18Zm10.418,18.15a5.334,5.334,0,0,0,4.74-2.22V128h4.23V117.77c0-4.26-2.73-5.82-6.57-5.82s-6.78,1.65-7.05,5.37h4.11a2.365,2.365,0,0,1,2.67-2.22c1.98,0,2.55,1.02,2.55,2.88v.63h-1.77c-4.8,0-8.16,1.38-8.16,5.04C284.963,126.95,287.363,128.33,290.213,128.33Zm1.29-3.03c-1.59,0-2.28-.75-2.28-1.89,0-1.68,1.47-2.22,3.99-2.22h1.68v1.32C294.893,124.25,293.423,125.3,291.5,125.3Zm23.793,3a7.9,7.9,0,0,0,2.64-.42v-3.36a4.05,4.05,0,0,1-1.65.3c-1.11,0-1.74-.6-1.74-1.86V115.4h3.3v-3.09h-3.3v-3.39h-4.32v3.39h-2.01v3.09h2.01v7.95C310.226,126.62,312,128.3,315.3,128.3Zm12.9-3.27c-2.46,0-3.84-1.8-3.84-4.8v-.24c0-3,1.44-4.74,3.84-4.74,2.43,0,3.84,1.8,3.84,4.8v.21C332.035,123.23,330.625,125.03,328.2,125.03Zm-.03,3.3c4.71,0,8.28-3.15,8.28-8.1v-.24c0-4.89-3.54-8.04-8.25-8.04s-8.28,3.21-8.28,8.13v.24C319.915,125.21,323.485,128.33,328.165,128.33Zm-290.545,39c4.14,0,6.6-1.77,6.6-5.16,0-3.36-2.16-4.35-6.09-4.92-2.28-.33-3.03-.72-3.03-1.71,0-.96.81-1.62,2.22-1.62a2.124,2.124,0,0,1,2.46,1.89h3.99c-.39-3.6-3-4.86-6.48-4.86-3.21,0-6.21,1.62-6.21,4.89,0,3.06,1.62,4.26,5.79,4.89,2.25.33,3.18.78,3.18,1.86s-.78,1.71-2.46,1.71c-1.89,0-2.58-.81-2.76-2.22H30.78C30.93,165.47,33.39,167.33,37.62,167.33Zm15.089-.03a7.9,7.9,0,0,0,2.64-.42v-3.36a4.05,4.05,0,0,1-1.65.3c-1.11,0-1.74-.6-1.74-1.86V154.4h3.3v-3.09h-3.3v-3.39h-4.32v3.39h-2.01v3.09h2.01v7.95C47.639,165.62,49.409,167.3,52.709,167.3Zm5.579-.3h4.35v-7.86c0-3,1.86-4.05,5.07-4.02v-4.05a5.152,5.152,0,0,0-5.07,3.24v-3h-4.35Zm19.212.33c4.29,0,6.99-1.89,7.5-5.28H80.89c-.27,1.32-1.26,2.19-3.27,2.19-2.37,0-3.78-1.5-3.9-4.11H85.03v-1.2c0-5.61-3.6-7.98-7.65-7.98a7.789,7.789,0,0,0-8.07,8.16v.24C69.31,164.36,72.76,167.33,77.5,167.33Zm-3.72-9.87c.33-2.22,1.65-3.51,3.6-3.51,2.07,0,3.27,1.14,3.42,3.51Zm18.474,9.87a5.334,5.334,0,0,0,4.74-2.22V167h4.23V156.77c0-4.26-2.73-5.82-6.57-5.82s-6.78,1.65-7.05,5.37h4.11a2.365,2.365,0,0,1,2.67-2.22c1.98,0,2.55,1.02,2.55,2.88v.63h-1.77c-4.8,0-8.16,1.38-8.16,5.04C87,165.95,89.4,167.33,92.254,167.33Zm1.29-3.03c-1.59,0-2.28-.75-2.28-1.89,0-1.68,1.47-2.22,3.99-2.22h1.68v1.32C96.934,163.25,95.464,164.3,93.544,164.3Zm11.413,2.7h4.35v-9.27a2.916,2.916,0,0,1,3.03-3.21c1.53,0,2.46.9,2.46,2.91V167h4.32v-9.27a2.916,2.916,0,0,1,3.03-3.21c1.56,0,2.46.9,2.46,2.91V167h4.32V156.95c0-4.17-2.25-6-5.16-6a6.233,6.233,0,0,0-5.28,2.73,4.326,4.326,0,0,0-4.38-2.73,5.335,5.335,0,0,0-4.8,2.76v-2.4h-4.35Zm27.806,0h4.32V144.2h-4.32Zm8.408,0h4.32V151.31h-4.32Zm2.13-17.82a2.372,2.372,0,1,0-2.46-2.37A2.385,2.385,0,0,0,143.3,149.18ZM149.488,167h4.35v-9.06a3.107,3.107,0,0,1,3.27-3.45c1.92,0,2.76,1.02,2.76,3.15V167h4.35v-9.99c0-4.2-2.19-6.06-5.28-6.06a5.42,5.42,0,0,0-5.1,2.85v-2.49h-4.35Zm25.687.33c4.29,0,6.99-1.89,7.5-5.28h-4.11c-.27,1.32-1.26,2.19-3.27,2.19-2.37,0-3.78-1.5-3.9-4.11h11.31v-1.2c0-5.61-3.6-7.98-7.65-7.98a7.789,7.789,0,0,0-8.07,8.16v.24C166.985,164.36,170.435,167.33,175.175,167.33Zm-3.72-9.87c.33-2.22,1.65-3.51,3.6-3.51,2.07,0,3.27,1.14,3.42,3.51Zm28.068,6.57c-2.46,0-3.84-1.8-3.84-4.8v-.24c0-3,1.44-4.74,3.84-4.74,2.43,0,3.84,1.8,3.84,4.8v.21C203.363,162.23,201.953,164.03,199.523,164.03Zm-.03,3.3c4.71,0,8.28-3.15,8.28-8.1v-.24c0-4.89-3.54-8.04-8.25-8.04s-8.28,3.21-8.28,8.13v.24C191.243,164.21,194.813,167.33,199.493,167.33Zm11.2,5.01h4.35V164.6a5.483,5.483,0,0,0,5.01,2.73c3.9,0,6.84-2.91,6.84-8.1v-.24c0-5.19-3-8.04-6.84-8.04a5.828,5.828,0,0,0-5.01,2.82v-2.46h-4.35Zm8.07-8.4c-2.37,0-3.87-1.53-3.87-4.68v-.24c0-3.15,1.56-4.74,3.84-4.74,2.19,0,3.75,1.56,3.75,4.74v.24C222.48,162.32,221.16,163.94,218.76,163.94Zm18.261,3.39c4.29,0,6.99-1.89,7.5-5.28h-4.11c-.27,1.32-1.26,2.19-3.27,2.19-2.37,0-3.78-1.5-3.9-4.11h11.31v-1.2c0-5.61-3.6-7.98-7.65-7.98a7.789,7.789,0,0,0-8.07,8.16v.24C228.831,164.36,232.281,167.33,237.021,167.33Zm-3.72-9.87c.33-2.22,1.65-3.51,3.6-3.51,2.07,0,3.27,1.14,3.42,3.51ZM247.4,167h4.35v-7.86c0-3,1.86-4.05,5.07-4.02v-4.05a5.152,5.152,0,0,0-5.07,3.24v-3H247.4Zm16.212.33a5.334,5.334,0,0,0,4.74-2.22V167h4.23V156.77c0-4.26-2.73-5.82-6.57-5.82s-6.78,1.65-7.05,5.37h4.11a2.365,2.365,0,0,1,2.67-2.22c1.98,0,2.55,1.02,2.55,2.88v.63h-1.77c-4.8,0-8.16,1.38-8.16,5.04C258.361,165.95,260.761,167.33,263.611,167.33Zm1.29-3.03c-1.59,0-2.28-.75-2.28-1.89,0-1.68,1.47-2.22,3.99-2.22h1.68v1.32C268.291,163.25,266.821,164.3,264.9,164.3Zm17.144,3a7.9,7.9,0,0,0,2.64-.42v-3.36a4.05,4.05,0,0,1-1.65.3c-1.11,0-1.74-.6-1.74-1.86V154.4h3.3v-3.09h-3.3v-3.39h-4.32v3.39h-2.01v3.09h2.01v7.95C276.975,165.62,278.745,167.3,282.045,167.3Zm5.7-.3h4.32V151.31h-4.32Zm2.13-17.82a2.372,2.372,0,1,0-2.46-2.37A2.385,2.385,0,0,0,289.873,149.18Zm13.508,14.85c-2.46,0-3.84-1.8-3.84-4.8v-.24c0-3,1.44-4.74,3.84-4.74,2.43,0,3.84,1.8,3.84,4.8v.21C307.221,162.23,305.811,164.03,303.381,164.03Zm-.03,3.3c4.71,0,8.28-3.15,8.28-8.1v-.24c0-4.89-3.54-8.04-8.25-8.04s-8.28,3.21-8.28,8.13v.24C295.1,164.21,298.671,167.33,303.351,167.33Zm11.2-.33h4.35v-9.06a3.107,3.107,0,0,1,3.27-3.45c1.92,0,2.76,1.02,2.76,3.15V167h4.35v-9.99c0-4.2-2.19-6.06-5.28-6.06a5.42,5.42,0,0,0-5.1,2.85v-2.49h-4.35Zm24.157.33c4.14,0,6.6-1.77,6.6-5.16,0-3.36-2.16-4.35-6.09-4.92-2.28-.33-3.03-.72-3.03-1.71,0-.96.81-1.62,2.22-1.62a2.124,2.124,0,0,1,2.46,1.89h3.99c-.39-3.6-3-4.86-6.48-4.86-3.21,0-6.21,1.62-6.21,4.89,0,3.06,1.62,4.26,5.79,4.89,2.25.33,3.18.78,3.18,1.86s-.78,1.71-2.46,1.71c-1.89,0-2.58-.81-2.76-2.22h-4.05C332.014,165.47,334.474,167.33,338.7,167.33ZM39.24,203.03c-2.46,0-3.84-1.8-3.84-4.8v-.24c0-3,1.44-4.74,3.84-4.74,2.43,0,3.84,1.8,3.84,4.8v.21C43.08,201.23,41.67,203.03,39.24,203.03Zm-.03,3.3c4.71,0,8.28-3.15,8.28-8.1v-.24c0-4.89-3.54-8.04-8.25-8.04s-8.28,3.21-8.28,8.13v.24C30.96,203.21,34.53,206.33,39.21,206.33ZM51.126,206h4.32V193.4h3.42v-3.09h-3.42v-1.92a1.818,1.818,0,0,1,1.95-2.07,4.738,4.738,0,0,1,1.59.27v-3.27a7.171,7.171,0,0,0-2.25-.3c-3.48,0-5.61,1.83-5.61,5.49v1.8h-2.07v3.09h2.07Zm22.793.3a7.9,7.9,0,0,0,2.64-.42v-3.36a4.05,4.05,0,0,1-1.65.3c-1.11,0-1.74-.6-1.74-1.86V193.4h3.3v-3.09h-3.3v-3.39H68.85v3.39H66.84v3.09h2.01v7.95C68.85,204.62,70.619,206.3,73.92,206.3ZM79.5,206h4.35v-9.06a3.107,3.107,0,0,1,3.27-3.45c1.92,0,2.76,1.02,2.76,3.15V206h4.35v-9.99c0-4.2-2.19-6.06-5.28-6.06a5.42,5.42,0,0,0-5.1,2.85v-9.6H79.5Zm25.687.33c4.29,0,6.99-1.89,7.5-5.28h-4.11c-.27,1.32-1.26,2.19-3.27,2.19-2.37,0-3.78-1.5-3.9-4.11h11.31v-1.2c0-5.61-3.6-7.98-7.65-7.98A7.789,7.789,0,0,0,97,198.11v.24C97,203.36,100.445,206.33,105.185,206.33Zm-3.72-9.87c.33-2.22,1.65-3.51,3.6-3.51,2.07,0,3.27,1.14,3.42,3.51ZM115.683,206H120V190.31h-4.32Zm2.13-17.82a2.372,2.372,0,1,0-2.46-2.37A2.385,2.385,0,0,0,117.813,188.18ZM124,206h4.35v-7.86c0-3,1.86-4.05,5.07-4.02v-4.05a5.152,5.152,0,0,0-5.07,3.24v-3H124Zm18.926,0h4.35v-9.06a3.107,3.107,0,0,1,3.27-3.45c1.92,0,2.76,1.02,2.76,3.15V206h4.35v-9.99c0-4.2-2.19-6.06-5.28-6.06a5.42,5.42,0,0,0-5.1,2.85v-9.6h-4.35Zm23.677.33a5.2,5.2,0,0,0,4.98-2.79V206h4.32V190.31h-4.32v9.21a3.121,3.121,0,0,1-3.27,3.45c-1.86,0-2.73-1.02-2.73-3.15v-9.51h-4.32v10.11C161.263,204.53,163.543,206.33,166.6,206.33Zm20.109,5.46c5.16,0,8.25-2.37,8.28-7.02V190.31h-4.32v2.34a5.272,5.272,0,0,0-4.98-2.7c-3.9,0-6.9,3.15-6.9,7.65v.21c0,4.65,3.03,7.5,6.84,7.5a5.886,5.886,0,0,0,5.04-2.91v2.37c0,2.46-1.32,3.84-3.96,3.84-2.22,0-3.21-.9-3.48-2.28h-4.32C179.332,209.57,181.642,211.79,186.712,211.79Zm.21-9.75c-2.16,0-3.69-1.62-3.69-4.23v-.24c0-2.58,1.35-4.32,3.78-4.32,2.37,0,3.78,1.62,3.78,4.29v.21C190.792,200.42,189.2,202.04,186.922,202.04Zm19.132,4.29c4.29,0,6.99-1.89,7.5-5.28h-4.11c-.27,1.32-1.26,2.19-3.27,2.19-2.37,0-3.78-1.5-3.9-4.11h11.31v-1.2c0-5.61-3.6-7.98-7.65-7.98a7.789,7.789,0,0,0-8.07,8.16v.24C197.864,203.36,201.314,206.33,206.054,206.33Zm-3.72-9.87c.33-2.22,1.65-3.51,3.6-3.51,2.07,0,3.27,1.14,3.42,3.51Zm26.628,9.87a5.711,5.711,0,0,0,5.04-2.94V206h4.32V183.2H234v9.45a5.224,5.224,0,0,0-4.95-2.7c-3.93,0-6.9,3.03-6.9,8.19v.24C222.152,203.6,225.152,206.33,228.962,206.33Zm1.29-3.39c-2.16,0-3.66-1.53-3.66-4.65v-.24c0-3.12,1.35-4.77,3.78-4.77,2.37,0,3.75,1.59,3.75,4.71v.24C234.122,201.41,232.532,202.94,230.252,202.94ZM242.184,206h4.35v-7.86c0-3,1.86-4.05,5.07-4.02v-4.05a5.152,5.152,0,0,0-5.07,3.24v-3h-4.35Zm12.395,0h4.32V190.31h-4.32Zm2.13-17.82a2.372,2.372,0,1,0-2.46-2.37A2.385,2.385,0,0,0,256.709,188.18ZM267.127,206h4.89l5.7-15.69h-4.2l-3.72,11.22-3.75-11.22H261.4Zm19.406.33c4.29,0,6.99-1.89,7.5-5.28h-4.11c-.27,1.32-1.26,2.19-3.27,2.19-2.37,0-3.78-1.5-3.9-4.11h11.31v-1.2c0-5.61-3.6-7.98-7.65-7.98a7.789,7.789,0,0,0-8.07,8.16v.24C278.343,203.36,281.793,206.33,286.533,206.33Zm-3.72-9.87c.33-2.22,1.65-3.51,3.6-3.51,2.07,0,3.27,1.14,3.42,3.51Zm14.1,9.54h4.35v-7.86c0-3,1.86-4.05,5.07-4.02v-4.05a5.152,5.152,0,0,0-5.07,3.24v-3h-4.35ZM31.92,245h4.35v-9.06a3.107,3.107,0,0,1,3.27-3.45c1.92,0,2.76,1.02,2.76,3.15V245h4.35v-9.99c0-4.2-2.19-6.06-5.28-6.06a5.42,5.42,0,0,0-5.1,2.85v-2.49H31.92Zm25.687.33c4.29,0,6.99-1.89,7.5-5.28H61c-.27,1.32-1.26,2.19-3.27,2.19-2.37,0-3.78-1.5-3.9-4.11h11.31v-1.2c0-5.61-3.6-7.98-7.65-7.98a7.789,7.789,0,0,0-8.07,8.16v.24C49.417,242.36,52.867,245.33,57.607,245.33Zm-3.72-9.87c.33-2.22,1.65-3.51,3.6-3.51,2.07,0,3.27,1.14,3.42,3.51Zm19.827,9.84a7.9,7.9,0,0,0,2.64-.42v-3.36a4.05,4.05,0,0,1-1.65.3c-1.11,0-1.74-.6-1.74-1.86V232.4h3.3v-3.09h-3.3v-3.39h-4.32v3.39h-2.01v3.09h2.01v7.95C68.645,243.62,70.414,245.3,73.715,245.3Zm8.909-.3h4.32l2.88-9.84,2.67,9.84h4.26l4.95-15.69h-4.17l-2.97,10.56L91.8,229.31h-3.57L85.2,239.87l-2.79-10.56h-4.56Zm28.189-2.97c-2.46,0-3.84-1.8-3.84-4.8v-.24c0-3,1.44-4.74,3.84-4.74,2.43,0,3.84,1.8,3.84,4.8v.21C114.652,240.23,113.242,242.03,110.812,242.03Zm-.03,3.3c4.71,0,8.28-3.15,8.28-8.1v-.24c0-4.89-3.54-8.04-8.25-8.04s-8.28,3.21-8.28,8.13v.24C102.532,242.21,106.1,245.33,110.782,245.33Zm11.2-.33h4.35v-7.86c0-3,1.86-4.05,5.07-4.02v-4.05a5.152,5.152,0,0,0-5.07,3.24v-3h-4.35Zm12.275,0h4.35v-7.41l5.19,7.41h4.92l-6.15-8.55,5.7-7.14h-4.62l-5.04,6.63V222.2h-4.35Z" fill="#fff"/>
      <g id="Group_1" data-name="Group 1" opacity="0.7" clip-path="url(#clip-path)">
        <path id="Path_2" data-name="Path 2" d="M34.464,57.241a6.633,6.633,0,0,0,1.362,2.232,5.86,5.86,0,0,0,2.062,1.419,6.727,6.727,0,0,0,2.591.492,6.413,6.413,0,0,0,2.554-.511,6.282,6.282,0,0,0,2.081-1.438,6.515,6.515,0,0,0,1.381-2.213,8,8,0,0,0,.492-2.875V38h3.972V64.486H47.024V62.027A9.12,9.12,0,0,1,43.9,64.183a9.891,9.891,0,0,1-3.878.757,10.5,10.5,0,0,1-3.954-.738,9.257,9.257,0,0,1-3.178-2.1,9.9,9.9,0,0,1-2.118-3.272A11.219,11.219,0,0,1,30,54.574V38h3.972V54.347A8.151,8.151,0,0,0,34.464,57.241ZM57.806,38v9.647a10.121,10.121,0,0,1,3.064-2.1,9.187,9.187,0,0,1,3.783-.776,9.977,9.977,0,0,1,3.972.794A10.008,10.008,0,0,1,74,50.942a9.884,9.884,0,0,1,.794,3.935A9.748,9.748,0,0,1,74,58.792a10.058,10.058,0,0,1-5.372,5.353,9.976,9.976,0,0,1-3.972.794,9.318,9.318,0,0,1-3.8-.776,10.05,10.05,0,0,1-3.083-2.1v2.421H53.985V38Zm.435,19.483a6.581,6.581,0,0,0,1.419,2.119,6.846,6.846,0,0,0,2.119,1.438,6.441,6.441,0,0,0,2.61.53,6.347,6.347,0,0,0,2.573-.53,6.618,6.618,0,0,0,2.1-1.438,7.018,7.018,0,0,0,1.419-2.119,6.44,6.44,0,0,0,.53-2.61,6.575,6.575,0,0,0-.53-2.629,6.955,6.955,0,0,0-1.419-2.138,6.369,6.369,0,0,0-2.1-1.419A6.651,6.651,0,0,0,59.7,50.11a6.787,6.787,0,0,0-1.437,2.138,6.575,6.575,0,0,0-.53,2.629,6.643,6.643,0,0,0,.511,2.61ZM76.949,50.98a10.291,10.291,0,0,1,2.081-3.2A10.01,10.01,0,0,1,89.963,45.57a9.151,9.151,0,0,1,3.064,2.1,9.6,9.6,0,0,1,2.005,3.178,10.847,10.847,0,0,1,.719,3.991v1.249h-15.7a6.471,6.471,0,0,0,.757,2.175A6.559,6.559,0,0,0,82.226,60a6.483,6.483,0,0,0,1.93,1.154,6.3,6.3,0,0,0,2.289.416,6.619,6.619,0,0,0,5.561-2.837l2.762,2.043A10.079,10.079,0,0,1,86.445,64.9a10.654,10.654,0,0,1-4.029-.757,9.812,9.812,0,0,1-3.253-2.119,10.05,10.05,0,0,1-2.175-3.2,10.322,10.322,0,0,1-.038-7.85Zm5.315-1.494a6.448,6.448,0,0,0-2.137,3.575H91.892a6.258,6.258,0,0,0-2.1-3.575,5.947,5.947,0,0,0-7.529,0Zm20.637.435a5.123,5.123,0,0,0-1.211,3.594V64.486H97.869V45.192h3.784v2.383a5.375,5.375,0,0,1,1.872-1.854,5.3,5.3,0,0,1,2.743-.681h1.324V48.6H106A4.015,4.015,0,0,0,102.9,49.92Z" fill="#fff"/>
      </g>
      <path id="Path_3" data-name="Path 3" d="M61.386,320h3.162l4.046-12.155H66.01l-2.89,9.333-2.89-9.333H57.323Zm8.911,0h2.771V307.845H70.3Zm5.46,0h8.194v-2.142H78.494v-3.026h4.148v-2.006H78.494v-2.839h5.185v-2.142H75.757Zm12.116,0h2.652l2.227-8.4,2.193,8.4h2.805l2.958-12.155h-2.55l-1.972,8.449-2.159-8.449H91.682l-2.074,8.4-1.9-8.4H84.916Zm23.738.187c2.992,0,5.151-1.547,5.457-4.556h-2.7a2.549,2.549,0,0,1-2.788,2.329c-2.006,0-3.162-1.462-3.162-3.978v-.136c0-2.516,1.224-4.012,3.145-4.012a2.319,2.319,0,0,1,2.55,2.244h2.822c-.289-2.992-2.465-4.42-5.389-4.42a5.894,5.894,0,0,0-6.035,6.205V314C105.509,317.739,107.634,320.187,111.612,320.187Zm6.042-.187h2.584l.833-2.7h4.4l.833,2.7h2.873l-3.944-12.155h-3.587Zm5.627-9.911,1.6,5.253h-3.213Zm11.561,10.1c2.873,0,4.641-1.717,4.641-3.876,0-2.516-1.513-3.315-4.454-3.689-1.87-.272-2.261-.68-2.261-1.547,0-.816.612-1.377,1.819-1.377a1.761,1.761,0,0,1,2.023,1.615h2.533c-.221-2.414-1.819-3.638-4.556-3.638-2.686,0-4.42,1.547-4.42,3.621,0,2.346,1.275,3.281,4.386,3.689,1.785.272,2.3.612,2.3,1.581,0,.952-.8,1.615-2.006,1.615-1.8,0-2.261-.9-2.38-1.989h-2.635C129.98,318.623,131.51,320.187,134.842,320.187Zm6.624-.187h8.194v-2.142H144.2v-3.026h4.148v-2.006H144.2v-2.839h5.185v-2.142h-7.922Zm18.129.187c2.873,0,4.641-1.717,4.641-3.876,0-2.516-1.513-3.315-4.454-3.689-1.87-.272-2.261-.68-2.261-1.547,0-.816.612-1.377,1.819-1.377a1.761,1.761,0,0,1,2.023,1.615H163.9c-.221-2.414-1.819-3.638-4.556-3.638-2.686,0-4.42,1.547-4.42,3.621,0,2.346,1.275,3.281,4.386,3.689,1.785.272,2.295.612,2.295,1.581,0,.952-.8,1.615-2.006,1.615-1.8,0-2.261-.9-2.38-1.989H154.58C154.733,318.623,156.263,320.187,159.6,320.187Zm8.672-.187h2.771V309.987h3.281v-2.142h-9.333v2.142h3.281Zm12.677.187c3.281,0,5.134-1.717,5.134-5.032v-7.31h-2.771v7.14c0,2.227-.714,3.009-2.346,3.009-1.666,0-2.261-.884-2.261-2.907v-7.242h-2.771v7.412C175.929,318.487,177.748,320.187,180.944,320.187Zm10.408-2.329v-7.871h1.088c2.567,0,3.638,1.343,3.638,3.842v.136c0,2.516-1.156,3.893-3.6,3.893ZM188.6,320h3.961c4.267,0,6.392-2.431,6.392-6.069V313.8c0-3.638-2.108-5.95-6.375-5.95H188.6Zm14.329,0H205.7v-5.236l3.791-6.919H206.82l-2.414,4.658-2.465-4.658h-3.026l4.012,6.919Z" fill="#fff"/>
      <rect id="Rectangle_3" data-name="Rectangle 3" width="208" height="51" rx="25.5" transform="translate(30 290)" fill="rgba(255,255,255,0.3)"/>
    </g>
  </g>
</svg>
