<?xml version="1.0" encoding="UTF-8"?>
<svg width="411px" height="642px" viewBox="0 0 411 642" version="1.1" xmlns="http://www.w3.org/2000/svg" xmlns:xlink="http://www.w3.org/1999/xlink">
    <!-- Generator: Sketch 62 (91390) - https://sketch.com -->
    <title>Group</title>
    <desc>Created with Sketch.</desc>
    <defs>
        <linearGradient x1="110.839%" y1="40.6987871%" x2="23.729%" y2="71.4581164%" id="linearGradient-1">
            <stop stop-color="#FFFFFF" offset="0%"></stop>
            <stop stop-color="#000000" offset="100%"></stop>
        </linearGradient>
        <linearGradient x1="79.3054823%" y1="26.308%" x2="37.345546%" y2="104.658%" id="linearGradient-2">
            <stop stop-color="#FFFFFF" offset="0%"></stop>
            <stop stop-color="#000000" offset="100%"></stop>
        </linearGradient>
        <linearGradient x1="110.839%" y1="26.308%" x2="23.729%" y2="104.658%" id="linearGradient-3">
            <stop stop-color="#FFFFFF" offset="0%"></stop>
            <stop stop-color="#000000" offset="100%"></stop>
        </linearGradient>
        <linearGradient x1="110.839%" y1="26.308%" x2="23.729%" y2="104.658%" id="linearGradient-4">
            <stop stop-color="#FFFFFF" offset="0%"></stop>
            <stop stop-color="#000000" offset="100%"></stop>
        </linearGradient>
        <linearGradient x1="110.839%" y1="26.308%" x2="23.729%" y2="104.658%" id="linearGradient-5">
            <stop stop-color="#FFFFFF" offset="0%"></stop>
            <stop stop-color="#000000" offset="100%"></stop>
        </linearGradient>
        <linearGradient x1="110.839%" y1="26.308%" x2="23.729%" y2="104.658%" id="linearGradient-6">
            <stop stop-color="#FFFFFF" offset="0%"></stop>
            <stop stop-color="#000000" offset="100%"></stop>
        </linearGradient>
        <linearGradient x1="110.839%" y1="26.308%" x2="23.729%" y2="104.658%" id="linearGradient-7">
            <stop stop-color="#FFFFFF" offset="0%"></stop>
            <stop stop-color="#000000" offset="100%"></stop>
        </linearGradient>
    </defs>
    <g id="Page-1" stroke="none" stroke-width="1" fill="none" fill-rule="evenodd">
        <g id="group-10-copy" transform="translate(-1029.000000, -32.000000)">
            <g id="Group" transform="translate(689.528000, 275.560000) scale(-1, 1) translate(-689.528000, -275.560000) translate(-266.472000, -323.440000)">
                <g transform="translate(0.000000, 309.000000)" id="Path">
                    <path d="M561.385628,347.612149 C450.165628,374.769149 377.791628,459.989149 344.261628,603.266149 C310.731628,746.544149 203.428628,834.162149 22.3516281,866.119149" stroke="url(#linearGradient-3)" transform="translate(291.868628, 606.865649) rotate(-175.000000) translate(-291.868628, -606.865649) "></path>
                    <path d="M562.779792,334.097232 C451.559792,361.256232 379.185792,446.474232 345.655792,589.752232 C312.125792,733.030232 204.822792,820.647232 23.7457924,852.605232" stroke="url(#linearGradient-4)" transform="translate(293.262792, 593.351232) rotate(-175.000000) translate(-293.262792, -593.351232) "></path>
                    <path d="M564.173002,320.582274 C452.953002,347.741274 380.578002,432.959274 347.048002,576.236274 C313.518002,719.514274 206.216002,807.132274 25.1400021,839.090274" stroke="url(#linearGradient-5)" transform="translate(294.656502, 579.836274) rotate(-175.000000) translate(-294.656502, -579.836274) "></path>
                    <path d="M565.569163,307.068444 C454.349163,334.226444 381.974163,419.444444 348.444163,562.721444 C314.914163,705.998444 207.611163,793.617444 26.5341626,825.575444" stroke="url(#linearGradient-6)" transform="translate(296.051663, 566.321944) rotate(-175.000000) translate(-296.051663, -566.321944) "></path>
                    <path d="M566.963325,293.55357 C455.743325,320.71257 383.368325,405.93057 349.839325,549.20857 C316.309325,692.48557 209.006325,780.10257 27.929325,812.06157" stroke="url(#linearGradient-4)" transform="translate(297.446325, 552.807570) rotate(-175.000000) translate(-297.446325, -552.807570) "></path>
                    <path d="M568.357489,280.039653 C457.137489,307.197653 384.762489,392.416653 351.232489,535.693653 C317.702489,678.971653 210.400489,766.589653 29.3234892,798.546653" stroke="url(#linearGradient-3)" transform="translate(298.840489, 539.293153) rotate(-175.000000) translate(-298.840489, -539.293153) "></path>
                    <path d="M569.752652,266.52478 C458.532652,293.68378 386.157652,378.90178 352.627652,522.17978 C319.097652,665.45778 211.794652,753.07478 30.7176516,785.03278" stroke="url(#linearGradient-7)" transform="translate(300.235152, 525.778780) rotate(-175.000000) translate(-300.235152, -525.778780) "></path>
                    <path d="M571.146858,253.009908 C459.926858,280.168908 387.551858,365.386908 354.022858,508.663908 C320.492858,651.941908 213.189858,739.559908 32.1128575,771.517908" stroke="url(#linearGradient-4)" transform="translate(301.629858, 512.263908) rotate(-175.000000) translate(-301.629858, -512.263908) "></path>
                    <path d="M572.541022,239.495991 C461.321022,266.652991 388.946022,351.870991 355.416022,495.148991 C321.886022,638.426991 214.584022,726.044991 33.5070218,758.002991" stroke="url(#linearGradient-3)" transform="translate(303.024022, 498.749491) rotate(-175.000000) translate(-303.024022, -498.749491) "></path>
                    <path d="M573.935186,225.981074 C462.715186,253.140074 390.340186,338.358074 356.810186,481.636074 C323.281186,624.913074 215.977186,712.531074 34.9011861,744.489074" stroke="url(#linearGradient-4)" transform="translate(304.418186, 485.235074) rotate(-175.000000) translate(-304.418186, -485.235074) "></path>
                    <path d="M575.330347,212.467245 C464.110347,239.625245 391.736347,324.843245 358.206347,468.121245 C324.676347,611.399245 217.373347,699.018245 36.2963465,730.974245" stroke="url(#linearGradient-3)" transform="translate(305.813347, 471.720745) rotate(-175.000000) translate(-305.813347, -471.720745) "></path>
                    <path d="M576.724511,198.952328 C465.504511,226.111328 393.129511,311.329328 359.600511,454.607328 C326.070511,597.884328 218.767511,685.502328 37.6905108,717.460328" stroke="url(#linearGradient-4)" transform="translate(307.207511, 458.206328) rotate(-175.000000) translate(-307.207511, -458.206328) "></path>
                    <path d="M578.119673,185.438454 C466.899673,212.596454 394.524673,297.815454 360.994673,441.092454 C327.464673,584.370454 220.161673,671.988454 39.0846732,703.945454" stroke="url(#linearGradient-6)" transform="translate(308.602173, 444.691954) rotate(-175.000000) translate(-308.602173, -444.691954) "></path>
                    <path d="M579.513836,171.923581 C468.293836,199.083581 395.919836,284.300581 362.389836,427.578581 C328.859836,570.856581 221.555836,658.473581 40.4798355,690.431581" stroke="url(#linearGradient-4)" transform="translate(309.996836, 431.177581) rotate(-175.000000) translate(-309.996836, -431.177581) "></path>
                    <path d="M580.908043,158.408666 C469.688043,185.567666 397.313043,270.785666 363.784043,414.063666 C330.254043,557.340666 222.951043,644.958666 41.8740434,676.916666" stroke="url(#linearGradient-4)" transform="translate(311.391043, 417.662666) rotate(-175.000000) translate(-311.391043, -417.662666) "></path>
                    <path d="M582.303249,144.893794 C471.083249,172.051794 398.707249,257.269794 365.177249,400.547794 C331.647249,543.825794 224.345249,631.443794 43.2682493,663.401794" stroke="url(#linearGradient-7)" transform="translate(312.785749, 404.147794) rotate(-175.000000) translate(-312.785749, -404.147794) "></path>
                    <path d="M583.697368,131.379919 C472.477368,158.538919 400.103368,243.756919 366.573368,387.034919 C333.043368,530.311919 225.740368,617.929919 44.6633681,649.887919" stroke="url(#linearGradient-4)" transform="translate(314.180368, 390.633919) rotate(-175.000000) translate(-314.180368, -390.633919) "></path>
                    <path d="M585.091489,117.866 C473.871489,145.026 401.496489,230.244 367.967489,373.521 C334.437489,516.799 227.134489,604.417 46.0574888,636.374" stroke="url(#linearGradient-4)" transform="translate(315.574489, 377.120000) rotate(-175.000000) translate(-315.574489, -377.120000) "></path>
                    <path d="M586.486695,104.351128 C475.266695,131.510128 402.891695,216.728128 369.361695,360.006128 C335.831695,503.284128 228.529695,590.901128 47.4516948,622.859128" stroke="url(#linearGradient-7)" transform="translate(316.969195, 363.605128) rotate(-175.000000) translate(-316.969195, -363.605128) "></path>
                    <path d="M587.880901,90.8362567 C476.660901,117.995257 404.286901,203.213257 370.756901,346.490257 C337.226901,489.768257 229.923901,577.386257 48.8469007,609.344257" stroke="url(#linearGradient-4)" transform="translate(318.363901, 350.090257) rotate(-175.000000) translate(-318.363901, -350.090257) "></path>
                    <path d="M589.275067,77.3222961 C478.055067,104.480296 405.678067,189.697296 372.149067,332.976296 C338.620067,476.254296 231.317067,563.871296 50.2400669,595.829296" stroke="url(#linearGradient-6)" transform="translate(319.757567, 336.575796) rotate(-175.000000) translate(-319.757567, -336.575796) "></path>
                    <path d="M590.669273,63.8074246 C479.449273,90.9654246 407.074273,176.183425 373.544273,319.461425 C340.014273,462.737425 232.712273,550.356425 51.6352728,582.314425" stroke="url(#linearGradient-3)" transform="translate(321.152273, 323.060925) rotate(-175.000000) translate(-321.152273, -323.060925) "></path>
                    <path d="M592.06439,50.2935928 C480.84439,77.4515928 408.47039,162.670593 374.94039,305.947593 C341.41039,449.225593 234.10739,536.843593 53.0303897,568.800593" stroke="url(#linearGradient-3)" transform="translate(322.547390, 309.547093) rotate(-175.000000) translate(-322.547390, -309.547093) "></path>
                    <path d="M593.459552,36.7787194 C482.239552,63.9377194 409.864552,149.155719 376.335552,292.433719 C342.804552,435.710719 235.502552,523.328719 54.4245521,555.286719" stroke="url(#linearGradient-7)" transform="translate(323.942052, 296.032719) rotate(-175.000000) translate(-323.942052, -296.032719) "></path>
                    <path d="M594.852762,23.2637607 C483.632762,50.4227607 411.257762,135.640761 377.727762,278.917761 C344.198762,422.195761 236.895762,509.813761 55.8187618,541.771761" stroke="url(#linearGradient-4)" transform="translate(325.335762, 282.517761) rotate(-175.000000) translate(-325.335762, -282.517761) "></path>
                </g>
            </g>
        </g>
    </g>
</svg>