<?xml version="1.0" encoding="UTF-8"?>
<svg width="350px" height="546px" viewBox="0 0 350 546" version="1.1" xmlns="http://www.w3.org/2000/svg" xmlns:xlink="http://www.w3.org/1999/xlink">
    <!-- Generator: Sketch 62 (91390) - https://sketch.com -->
    <title>Group</title>
    <desc>Created with Sketch.</desc>
    <defs>
        <linearGradient x1="110.839%" y1="40.6987871%" x2="23.729%" y2="71.4581164%" id="linearGradient-1">
            <stop stop-color="#FFFFFF" offset="0%"></stop>
            <stop stop-color="#000000" offset="100%"></stop>
        </linearGradient>
        <linearGradient x1="76.3799042%" y1="26.308%" x2="38.6088453%" y2="104.658%" id="linearGradient-2">
            <stop stop-color="#FFFFFF" offset="0%"></stop>
            <stop stop-color="#000000" offset="100%"></stop>
        </linearGradient>
        <linearGradient x1="110.839%" y1="26.308%" x2="23.729%" y2="104.658%" id="linearGradient-3">
            <stop stop-color="#FFFFFF" offset="0%"></stop>
            <stop stop-color="#000000" offset="100%"></stop>
        </linearGradient>
        <linearGradient x1="110.839%" y1="26.308%" x2="23.729%" y2="104.658%" id="linearGradient-4">
            <stop stop-color="#FFFFFF" offset="0%"></stop>
            <stop stop-color="#000000" offset="100%"></stop>
        </linearGradient>
        <linearGradient x1="110.839%" y1="26.308%" x2="23.729%" y2="104.658%" id="linearGradient-5">
            <stop stop-color="#FFFFFF" offset="0%"></stop>
            <stop stop-color="#000000" offset="100%"></stop>
        </linearGradient>
        <linearGradient x1="110.839%" y1="26.308%" x2="23.729%" y2="104.658%" id="linearGradient-6">
            <stop stop-color="#FFFFFF" offset="0%"></stop>
            <stop stop-color="#000000" offset="100%"></stop>
        </linearGradient>
        <linearGradient x1="110.839%" y1="26.308%" x2="23.729%" y2="104.658%" id="linearGradient-7">
            <stop stop-color="#FFFFFF" offset="0%"></stop>
            <stop stop-color="#000000" offset="100%"></stop>
        </linearGradient>
    </defs>
    <g id="Page-1" stroke="none" stroke-width="1" fill="none" fill-rule="evenodd">
        <g id="group-10-copy" transform="translate(0.000000, -21.000000)">
            <g id="Group" transform="translate(689.528000, 275.560000) scale(-1, 1) translate(-689.528000, -275.560000) translate(-266.472000, -323.440000)">
                <g transform="translate(1295.000000, 0.000000)" id="Path">
                    <path d="M594.934073,22.68946 C483.714073,49.84846 411.339073,135.06646 377.809073,278.34446 C344.280073,421.62146 236.977073,509.23946 55.9000725,541.19746" stroke="url(#linearGradient-3)" transform="translate(325.417073, 281.943460) rotate(5.000000) translate(-325.417073, -281.943460) "></path>
                    <path d="M593.539588,38.2039601 C482.319588,65.3629601 409.944588,150.58096 376.414588,293.85896 C342.884588,437.13596 235.582588,524.75396 54.5055883,556.71196" stroke="url(#linearGradient-3)" transform="translate(324.022588, 297.457960) rotate(5.000000) translate(-324.022588, -297.457960) "></path>
                    <path d="M592.145104,53.7184601 C480.925104,80.8774601 408.550104,166.09546 375.020104,309.37246 C341.490104,452.65046 234.188104,540.26846 53.1111041,572.22646" stroke="url(#linearGradient-3)" transform="translate(322.628104, 312.972460) rotate(5.000000) translate(-322.628104, -312.972460) "></path>
                    <path d="M590.750618,69.2320037 C479.530618,96.3920037 407.155618,181.610004 373.625618,324.887004 C340.095618,468.165004 232.793618,555.783004 51.717618,587.742004" stroke="url(#linearGradient-4)" transform="translate(321.234118, 328.487004) rotate(5.000000) translate(-321.234118, -328.487004) "></path>
                    <path d="M589.356136,84.7474602 C478.136136,111.90646 405.760136,197.12446 372.230136,340.40146 C338.701136,483.67946 231.400136,571.29746 50.3221357,603.25546" stroke="url(#linearGradient-3)" transform="translate(319.839136, 344.001460) rotate(5.000000) translate(-319.839136, -344.001460) "></path>
                    <path d="M587.961651,100.26196 C476.741651,127.42096 404.366651,212.63896 370.836651,355.91596 C337.306651,499.19396 230.004651,586.81196 48.9276515,618.76996" stroke="url(#linearGradient-3)" transform="translate(318.444651, 359.515960) rotate(5.000000) translate(-318.444651, -359.515960) "></path>
                    <path d="M586.567169,115.776417 C475.347169,142.935417 402.972169,228.153417 369.442169,371.430417 C335.912169,514.708417 228.610169,602.326417 47.5321692,634.284417" stroke="url(#linearGradient-5)" transform="translate(317.049669, 375.030417) rotate(5.000000) translate(-317.049669, -375.030417) "></path>
                    <path d="M585.172729,131.290919 C473.952729,158.448919 401.577729,243.667919 368.047729,386.944919 C334.517729,530.222919 227.215729,617.841919 46.1377285,649.797919" stroke="url(#linearGradient-6)" transform="translate(315.655229, 390.544419) rotate(5.000000) translate(-315.655229, -390.544419) "></path>
                    <path d="M583.778244,146.805419 C472.558244,173.963419 400.183244,259.182419 366.653244,402.459419 C333.123244,545.737419 225.820244,633.355419 44.7432443,665.312419" stroke="url(#linearGradient-6)" transform="translate(314.260744, 406.058919) rotate(5.000000) translate(-314.260744, -406.058919) "></path>
                    <path d="M582.382762,162.319875 C471.162762,189.476875 398.789762,274.696875 365.259762,417.973875 C331.728762,561.251875 224.425762,648.869875 43.348762,680.826875" stroke="url(#linearGradient-7)" transform="translate(312.865762, 421.573375) rotate(5.000000) translate(-312.865762, -421.573375) "></path>
                    <path d="M580.989274,177.834462 C469.769274,204.992462 397.394274,290.211462 363.864274,433.488462 C330.335274,576.766462 223.031274,664.384462 41.955274,696.341462" stroke="url(#linearGradient-7)" transform="translate(311.472274, 437.087962) rotate(5.000000) translate(-311.472274, -437.087962) "></path>
                    <path d="M579.594792,193.348919 C468.374792,220.506919 395.999792,305.725919 362.469792,449.001919 C328.939792,592.281919 221.637792,679.898919 40.5597917,711.855919" stroke="url(#linearGradient-6)" transform="translate(310.077292, 452.602419) rotate(5.000000) translate(-310.077292, -452.602419) "></path>
                    <path d="M578.200307,208.863419 C466.980307,236.021419 394.605307,321.239419 361.075307,464.517419 C327.545307,607.795419 220.242307,695.413419 39.1653075,727.370419" stroke="url(#linearGradient-6)" transform="translate(308.682807, 468.116919) rotate(5.000000) translate(-308.682807, -468.116919) "></path>
                    <path d="M576.805867,224.376921 C465.585867,251.536921 393.210867,336.754921 359.680867,480.031921 C326.150867,623.309921 218.847867,710.927921 37.7708669,742.884921" stroke="url(#linearGradient-5)" transform="translate(307.288367, 483.630921) rotate(5.000000) translate(-307.288367, -483.630921) "></path>
                    <path d="M575.411339,239.892419 C464.191339,267.050419 391.815339,352.269419 358.285339,495.546419 C324.756339,638.824419 217.453339,726.442419 36.3763391,758.399419" stroke="url(#linearGradient-6)" transform="translate(305.893839, 499.145919) rotate(5.000000) translate(-305.893839, -499.145919) "></path>
                    <path d="M574.016855,255.406919 C462.796855,282.564919 390.421855,367.782919 356.891855,511.060919 C323.361855,654.338919 216.058855,741.956919 34.9818549,773.913919" stroke="url(#linearGradient-6)" transform="translate(304.499355, 514.660419) rotate(5.000000) translate(-304.499355, -514.660419) "></path>
                    <path d="M572.622327,270.921417 C461.402327,298.079417 389.027327,383.297417 355.497327,526.575417 C321.967327,669.853417 214.664327,757.471417 33.5873271,789.429417" stroke="url(#linearGradient-5)" transform="translate(303.104827, 530.175417) rotate(5.000000) translate(-303.104827, -530.175417) "></path>
                    <path d="M571.227886,286.435919 C460.007886,313.593919 387.632886,398.811919 354.102886,542.089919 C320.572886,685.367919 213.269886,772.986919 32.1928864,804.942919" stroke="url(#linearGradient-6)" transform="translate(301.710386, 545.689419) rotate(5.000000) translate(-301.710386, -545.689419) "></path>
                    <path d="M569.833402,301.950419 C458.613402,329.108419 386.238402,414.326419 352.708402,557.604419 C319.178402,700.882419 211.875402,788.500419 30.7984022,820.457419" stroke="url(#linearGradient-6)" transform="translate(300.315902, 561.203919) rotate(5.000000) translate(-300.315902, -561.203919) "></path>
                    <path d="M568.43792,317.464876 C457.21792,344.621876 384.84492,429.840876 351.31492,573.118876 C317.78492,716.396876 210.48092,804.013876 29.4039199,835.971876" stroke="url(#linearGradient-7)" transform="translate(298.920920, 576.718376) rotate(5.000000) translate(-298.920920, -576.718376) "></path>
                    <path d="M567.044432,332.979463 C455.824432,360.137463 383.449432,445.355463 349.919432,588.633463 C316.389432,731.911463 209.086432,819.529463 28.0104319,851.486463" stroke="url(#linearGradient-7)" transform="translate(297.527432, 592.232963) rotate(5.000000) translate(-297.527432, -592.232963) "></path>
                    <path d="M565.649993,348.492921 C454.429993,375.652921 382.054993,460.869921 348.524993,604.147921 C314.994993,747.425921 207.692993,835.042921 26.6149932,867.000921" stroke="url(#linearGradient-5)" transform="translate(296.132493, 607.746921) rotate(5.000000) translate(-296.132493, -607.746921) "></path>
                    <path d="M564.255509,364.007421 C453.035509,391.167421 380.660509,476.384421 347.130509,619.662421 C313.600509,762.940421 206.297509,850.557421 25.220509,882.515421" stroke="url(#linearGradient-5)" transform="translate(294.738009, 623.261421) rotate(5.000000) translate(-294.738009, -623.261421) "></path>
                    <path d="M562.861025,379.521921 C451.641025,406.681921 379.266025,491.898921 345.736025,635.176921 C312.206025,778.454921 204.903025,866.071921 23.8260248,898.029921" stroke="url(#linearGradient-5)" transform="translate(293.343525, 638.775921) rotate(5.000000) translate(-293.343525, -638.775921) "></path>
                    <path d="M561.466541,395.036421 C450.246541,422.196421 377.871541,507.413421 344.341541,650.691421 C310.811541,793.969421 203.508541,881.586421 22.4315406,913.544421" stroke="url(#linearGradient-5)" transform="translate(291.949041, 654.290421) rotate(5.000000) translate(-291.949041, -654.290421) "></path>
                </g>
            </g>
        </g>
    </g>
</svg>