<?xml version="1.0" encoding="UTF-8"?>
<svg width="268px" height="56px" viewBox="0 0 268 56" version="1.1" xmlns="http://www.w3.org/2000/svg" xmlns:xlink="http://www.w3.org/1999/xlink">
    <!-- Generator: Sketch 52.5 (67469) - http://www.bohemiancoding.com/sketch -->
    <title>JOULE</title>
    <desc>Created with Sketch.</desc>
    <g id="Page-1" stroke="none" stroke-width="1" fill="none" fill-rule="evenodd">
        <g id="1" transform="translate(-170.000000, -338.000000)" fill="#FFFFFF">
            <g id="Group">
                <g id="Group-2" transform="translate(169.000000, 338.000000)">
                    <g id="Group-10">
                        <path d="M1.60999354,40.2666132 L6.25504269,40.2666132 C7.07916431,47.3091071 11.6492933,51.6544756 18.616867,51.6544756 C25.5844407,51.6544756 30.9786914,47.758628 30.9786914,38.0190088 L30.9786914,1.30813651 L35.4739002,1.30813651 L35.4739002,38.0190088 C35.4739002,50.1560727 28.0568056,55.8500039 18.616867,55.8500039 C9.02708814,55.8500039 2.35919502,49.7065518 1.60999354,40.2666132 Z M77.504103,0.484014889 C91.21449,0.484014889 101.32871,11.722037 101.32871,28.2044695 C101.32871,44.6869019 91.21449,55.8500039 77.504103,55.8500039 C63.793716,55.8500039 53.6794961,44.6869019 53.6794961,28.2044695 C53.6794961,11.722037 63.793716,0.484014889 77.504103,0.484014889 Z M77.504103,4.67954315 C66.1162405,4.67954315 58.2496251,14.3442422 58.2496251,28.2044695 C58.2496251,42.0646968 66.1162405,51.6544756 77.504103,51.6544756 C88.8919654,51.6544756 96.6836607,42.0646968 96.6836607,28.2044695 C96.6836607,14.3442422 88.8919654,4.67954315 77.504103,4.67954315 Z M160.740387,1.30813651 L160.740387,33.8984007 C160.740387,48.7325899 151.675049,55.8500039 140.062426,55.8500039 C128.599644,55.8500039 119.534306,48.7325899 119.534306,33.8984007 L119.534306,1.30813651 L124.029515,1.30813651 L124.029515,33.2990395 C124.029515,45.8856243 130.772328,51.7293958 140.062426,51.7293958 C149.352524,51.7293958 156.245178,45.8856243 156.245178,33.2990395 L156.245178,1.30813651 L160.740387,1.30813651 Z M182.54215,55.1008024 L182.54215,1.30813651 L187.037359,1.30813651 L187.037359,50.9801943 L216.256216,50.9801943 L216.256216,55.1008024 L182.54215,55.1008024 Z M235.585614,1.30813651 L269,1.30813651 L269,5.42874462 L240.005903,5.42874462 L240.005903,25.3575039 L266.227955,25.3575039 L266.227955,29.4031918 L240.005903,29.4031918 L240.005903,50.9801943 L269,50.9801943 L269,55.1008024 L235.585614,55.1008024 L235.585614,1.30813651 Z" id="JOULE"></path>
                    </g>
                </g>
            </g>
        </g>
    </g>
</svg>