<?xml version="1.0" encoding="UTF-8"?>
<svg width="441px" height="74px" viewBox="0 0 441 74" version="1.1" xmlns="http://www.w3.org/2000/svg" xmlns:xlink="http://www.w3.org/1999/xlink">
    <!-- Generator: Sketch 52.5 (67469) - http://www.bohemiancoding.com/sketch -->
    <title>Wireframing</title>
    <desc>Created with Sketch.</desc>
    <defs>
        <linearGradient x1="2.11193186%" y1="0%" x2="85.8424009%" y2="120.135405%" id="linearGradient-1">
            <stop stop-color="#FFFFFF" stop-opacity="0.922582654" offset="0%"></stop>
            <stop stop-color="#FFFFFF" stop-opacity="0" offset="100%"></stop>
        </linearGradient>
        <radialGradient cx="100%" cy="-69.4618654%" fx="100%" fy="-69.4618654%" r="565.672247%" gradientTransform="translate(1.000000,-0.694619),scale(0.163848,1.000000),rotate(157.130226),translate(-1.000000,0.694619)" id="radialGradient-2">
            <stop stop-color="#FFFFFF" offset="0%"></stop>
            <stop stop-color="#FFFFFF" stop-opacity="0.0842957428" offset="100%"></stop>
        </radialGradient>
    </defs>
    <g id="Page-1" stroke="none" stroke-width="1" fill="none" fill-rule="evenodd">
        <g id="6" transform="translate(-181.000000, -152.000000)" fill="url(#linearGradient-1)" stroke="url(#radialGradient-2)">
            <g id="Group" transform="translate(155.000000, 142.000000)">
                <path d="M84.0196685,47.6944402 L92.7801029,13.0335911 L105.120889,13.0335911 L90.4185945,67.0435735 L78.001631,67.0435735 L66.4987997,31.2400591 L54.9197908,67.0435735 L42.2742942,67.0435735 L27.572,13.0335911 L40.369852,13.0335911 L49.2826417,47.6182625 L60.4807622,13.0335911 L72.821548,13.0335911 L84.0196685,47.6944402 Z M121.295952,67.0435735 L109.716943,67.0435735 L109.716943,29.1832614 L121.295952,29.1832614 L121.295952,67.0435735 Z M110.707253,22.403447 C109.386833,21.0830271 108.726633,19.4833116 108.726633,17.6042525 C108.726633,15.7251934 109.386833,14.1254779 110.707253,12.805058 C112.027673,11.4846381 113.601996,10.8244381 115.430269,10.8244381 C117.309329,10.8244381 118.92174,11.4846381 120.267553,12.805058 C121.613365,14.1254779 122.286262,15.7251934 122.286262,17.6042525 C122.286262,19.4833116 121.613365,21.0830271 120.267553,22.403447 C118.92174,23.7238669 117.309329,24.3840669 115.430269,24.3840669 C113.601996,24.3840669 112.027673,23.7238669 110.707253,22.403447 Z M154.230106,29.1832614 L154.230106,40.609915 C153.163613,40.3559881 151.944782,40.2290265 150.573577,40.2290265 C147.983523,40.2290265 145.863265,41.0669727 144.21274,42.7428903 C142.562215,44.4188079 141.736965,47.0088234 141.736965,50.5130147 L141.736965,67.0435735 L130.157956,67.0435735 L130.157956,29.1832614 L141.356077,29.1832614 L141.356077,34.2871667 C142.270214,32.3573222 143.666791,30.9607452 145.54585,30.0973937 C147.424909,29.2340422 149.30394,28.802373 151.182999,28.802373 C152.351062,28.802373 153.366755,28.9293345 154.230106,29.1832614 Z M168.272194,43.5808449 L183.431554,43.5808449 C183.329984,41.8541419 182.657087,40.3559957 181.412845,39.0863612 C180.168604,37.8167266 178.302269,37.1819189 175.813785,37.1819189 C173.579228,37.1819189 171.801767,37.842119 170.481347,39.1625389 C169.160927,40.4829588 168.42455,41.9557127 168.272194,43.5808449 Z M184.269509,53.4077669 L193.944076,56.1501638 C192.979153,59.6543551 190.973161,62.5363822 187.926038,64.7963316 C184.878915,67.0562811 181.070069,68.1862388 176.499384,68.1862388 C171.014563,68.1862388 166.355075,66.3579926 162.520778,62.7014451 C158.686482,59.0448977 156.769363,54.144182 156.769363,47.9991509 C156.769363,42.1080468 158.635697,37.3089003 162.368423,33.6015675 C166.101148,29.8942347 170.532106,28.0405961 175.66143,28.0405961 C181.552534,28.0405961 186.186631,29.754577 189.563858,33.1825902 C192.941086,36.6106034 194.629675,41.3716614 194.629675,47.4659071 C194.629675,49.3957516 194.553498,50.5891901 194.401142,51.0462585 L168.043661,51.0462585 C168.145232,53.1284591 169.033962,54.8678323 170.70988,56.2644303 C172.385798,57.6610283 174.366398,58.3593168 176.65174,58.3593168 C180.562214,58.3593168 183.101445,56.7088167 184.269509,53.4077669 Z M222.383747,38.9340058 L214.156556,38.9340058 L214.156556,67.0435735 L202.577547,67.0435735 L202.577547,38.9340058 L196.55951,38.9340058 L196.55951,29.1832614 L202.577547,29.1832614 L202.577547,25.9076207 C202.577547,21.4892926 203.859859,17.9470654 206.42452,15.2808329 C208.989182,12.6146005 212.531409,11.2815042 217.051308,11.2815042 C219.590577,11.2815042 221.418824,11.5608196 222.536102,12.1194588 L222.536102,21.5654924 C221.520394,21.3115655 220.37774,21.1846039 219.108106,21.1846039 C217.787686,21.1846039 216.632336,21.5654886 215.642021,22.3272693 C214.651706,23.08905 214.156556,24.4094501 214.156556,26.2885092 L214.156556,29.1832614 L222.383747,29.1832614 L222.383747,38.9340058 Z M251.280484,29.1832614 L251.280484,40.609915 C250.213991,40.3559881 248.99516,40.2290265 247.623955,40.2290265 C245.0339,40.2290265 242.913642,41.0669727 241.263117,42.7428903 C239.612593,44.4188079 238.787343,47.0088234 238.787343,50.5130147 L238.787343,67.0435735 L227.208334,67.0435735 L227.208334,29.1832614 L238.406454,29.1832614 L238.406454,34.2871667 C239.320591,32.3573222 240.717168,30.9607452 242.596227,30.0973937 C244.475286,29.2340422 246.354317,28.802373 248.233376,28.802373 C249.40144,28.802373 250.417132,28.9293345 251.280484,29.1832614 Z M255.038583,56.6072299 C255.038583,53.4077509 256.079668,50.8304315 258.161868,48.8751944 C260.244069,46.9199572 262.935654,45.6884302 266.236704,45.1805764 L275.149493,43.809378 C276.977767,43.5554511 277.89189,42.6921125 277.89189,41.2193365 C277.89189,40.0512727 277.39674,39.0736688 276.406425,38.2864954 C275.41611,37.499322 274.057622,37.1057412 272.330919,37.1057412 C270.401074,37.1057412 268.86484,37.6516759 267.722169,38.7435616 C266.579497,39.8354472 265.957386,41.1431512 265.855815,42.6667126 L255.80036,40.609915 C256.054287,37.4612214 257.615914,34.5791942 260.485288,31.9637471 C263.354662,29.3483 267.328558,28.0405961 272.407096,28.0405961 C278.145845,28.0405961 282.373664,29.4117808 285.090682,32.1541913 C287.8077,34.8966019 289.166188,38.4007406 289.166188,42.6667126 L289.166188,61.1778913 C289.166188,63.5648042 289.318542,65.5200121 289.623254,67.0435735 L279.186911,67.0435735 C278.932984,66.0278659 278.806022,64.6058965 278.806022,62.7776228 C276.622251,66.3325995 273.067328,68.1100612 268.141146,68.1100612 C264.129101,68.1100612 260.942366,66.9801034 258.580846,64.7201539 C256.219325,62.4602045 255.038583,59.7559235 255.038583,56.6072299 Z M270.95972,59.7305152 C272.94035,59.7305152 274.59085,59.1464921 275.91127,57.9784283 C277.23169,56.8103646 277.89189,54.8805491 277.89189,52.1889239 L277.89189,50.5130147 L270.731187,51.6556801 C267.887206,52.1127485 266.465237,53.5093255 266.465237,55.845453 C266.465237,56.911946 266.833425,57.8260692 267.569813,58.5878499 C268.306201,59.3496306 269.436159,59.7305152 270.95972,59.7305152 Z M309.226313,67.0435735 L297.647305,67.0435735 L297.647305,29.1832614 L308.69307,29.1832614 L308.69307,33.5253898 C309.607206,31.9002576 311.118049,30.5798575 313.225642,29.5641499 C315.333235,28.5484423 317.453493,28.0405961 319.586479,28.0405961 C325.020515,28.0405961 328.753185,30.0211962 330.7846,33.9824559 C333.52701,30.0211962 337.437426,28.0405961 342.515964,28.0405961 C346.477224,28.0405961 349.803616,29.2467308 352.495242,31.6590364 C355.186867,34.0713419 356.532659,37.689746 356.532659,42.5143572 L356.532659,67.0435735 L345.334539,67.0435735 L345.334539,45.1043987 C345.334539,43.2253396 344.826692,41.6891049 343.810985,40.4956484 C342.795277,39.302192 341.297131,38.7054727 339.316501,38.7054727 C337.335871,38.7054727 335.78694,39.3402804 334.669662,40.609915 C333.552384,41.8795495 332.993753,43.4030881 332.993753,45.1805764 L332.993753,67.0435735 L321.567099,67.0435735 L321.567099,45.1043987 C321.567099,43.2253396 321.046557,41.6891049 320.005457,40.4956484 C318.964356,39.302192 317.453514,38.7054727 315.472884,38.7054727 C313.54304,38.7054727 312.019501,39.3402804 310.902223,40.609915 C309.784944,41.8795495 309.226313,43.4284804 309.226313,45.2567541 L309.226313,67.0435735 Z M376.592784,67.0435735 L365.013775,67.0435735 L365.013775,29.1832614 L376.592784,29.1832614 L376.592784,67.0435735 Z M366.004085,22.403447 C364.683665,21.0830271 364.023465,19.4833116 364.023465,17.6042525 C364.023465,15.7251934 364.683665,14.1254779 366.004085,12.805058 C367.324505,11.4846381 368.898828,10.8244381 370.727102,10.8244381 C372.606161,10.8244381 374.218573,11.4846381 375.564385,12.805058 C376.910198,14.1254779 377.583094,15.7251934 377.583094,17.6042525 C377.583094,19.4833116 376.910198,21.0830271 375.564385,22.403447 C374.218573,23.7238669 372.606161,24.3840669 370.727102,24.3840669 C368.898828,24.3840669 367.324505,23.7238669 366.004085,22.403447 Z M397.033798,45.3329318 L397.033798,67.0435735 L385.454789,67.0435735 L385.454789,29.1832614 L396.652909,29.1832614 L396.652909,33.5253898 C397.617832,31.8494722 399.103282,30.5417683 401.109304,29.6022387 C403.115327,28.6627092 405.159408,28.1929515 407.241608,28.1929515 C411.761507,28.1929515 415.189469,29.6022246 417.525596,32.4208133 C419.861724,35.2394019 421.02977,38.857806 421.02977,43.2761341 L421.02977,67.0435735 L409.450761,67.0435735 L409.450761,45.2567541 C409.450761,43.2761242 408.930219,41.6891049 407.889119,40.4956484 C406.848018,39.302192 405.311784,38.7054727 403.280368,38.7054727 C401.401309,38.7054727 399.890467,39.3275843 398.747796,40.5718261 C397.605125,41.816068 397.033798,43.4030873 397.033798,45.3329318 Z M426.844667,69.1765488 L437.052478,66.2817966 C437.458761,68.1608557 438.38558,69.6843942 439.832963,70.852458 C441.280347,72.0205218 443.070505,72.6045449 445.203491,72.6045449 C451.450092,72.6045449 454.573346,69.3797216 454.573346,62.9299782 L454.573346,61.1778913 C452.694287,64.0218727 449.31711,65.443842 444.441714,65.443842 C439.413961,65.443842 435.22423,63.6917726 431.872395,60.1875814 C428.52056,56.6833901 426.844667,52.2905206 426.844667,47.0088409 C426.844667,41.9303029 428.507863,37.5755218 431.834306,33.9443671 C435.160748,30.3132123 439.363176,28.4976622 444.441714,28.4976622 C447.23491,28.4976622 449.520217,28.9801161 451.297706,29.9450383 C453.075194,30.9099606 454.294025,32.0018299 454.954235,33.220679 L454.954235,29.1832614 L466,29.1832614 L466,62.3205567 C466,68.2116609 464.298715,73.0742881 460.896095,76.9085844 C457.493474,80.7428806 452.440405,82.66 445.736734,82.66 C440.556626,82.66 436.252629,81.3269038 432.824616,78.6606713 C429.396603,75.9944388 427.403306,72.8330962 426.844667,69.1765488 Z M440.709007,53.1030562 C442.232568,54.6266176 444.187776,55.3883869 446.574689,55.3883869 C448.961602,55.3883869 450.904114,54.6266176 452.402282,53.1030562 C453.900451,51.5794947 454.649524,49.54811 454.649524,47.0088409 C454.649524,44.5203573 453.862363,42.5016687 452.288016,40.9527146 C450.713669,39.4037605 448.809246,38.629295 446.574689,38.629295 C444.340132,38.629295 442.423013,39.4037605 440.823273,40.9527146 C439.223534,42.5016687 438.423676,44.5203573 438.423676,47.0088409 C438.423676,49.54811 439.185445,51.5794947 440.709007,53.1030562 Z" id="Wireframing"></path>
            </g>
        </g>
    </g>
</svg>