<?xml version="1.0" encoding="UTF-8"?>
<svg width="742px" height="239px" viewBox="0 0 742 239" version="1.1" xmlns="http://www.w3.org/2000/svg" xmlns:xlink="http://www.w3.org/1999/xlink">
    <!-- Generator: Sketch 62 (91390) - https://sketch.com -->
    <title>Group</title>
    <desc>Created with Sketch.</desc>
    <defs>
        <radialGradient cx="50%" cy="0%" fx="50%" fy="0%" r="100%" id="radialGradient-1">
            <stop stop-color="#FFE667" offset="0%"></stop>
            <stop stop-color="#FF913F" offset="48.7125319%"></stop>
            <stop stop-color="#FF4545" offset="100%"></stop>
        </radialGradient>
    </defs>
    <g id="Page-1" stroke="none" stroke-width="1" fill="none" fill-rule="evenodd">
        <g id="Raina-Logo" transform="translate(-114.000000, -115.000000)">
            <g id="Group" transform="translate(114.000000, 115.000000)">
                <g id="Group-2" fill="url(#radialGradient-1)">
                    <circle id="Asset-4@3x" cx="119.5" cy="119.5" r="62.1959064"></circle>
                    <path d="M118.821238,42.7413319 C160.827192,42.7309818 194.888137,76.7751446 194.898488,118.781098 C194.908839,160.787052 160.864677,194.847997 118.858722,194.858349 C76.8527681,194.868701 42.7918219,160.824539 42.7814693,118.818586 C42.8124484,76.8297497 76.8324221,42.7930055 118.821238,42.7413319 L118.821238,42.7413319 Z M118.821238,27.9532183 C82.0755034,27.9456372 48.9437753,50.0748994 34.876538,84.0213556 C20.8093007,117.967812 28.5771254,157.045638 54.5576034,183.031477 C80.5380814,209.017316 119.614305,216.793204 153.563663,202.732971 C187.513022,188.672739 209.64912,155.545578 209.649121,118.799843 C209.654092,94.7075436 200.086949,71.6003011 183.052877,54.5627152 C166.018806,37.5251292 142.913538,27.9532178 118.821238,27.9532183 L118.821238,27.9532183 Z" id="Asset-3@3x"></path>
                    <path d="M119.499999,14.2921116 C177.591945,14.2921125 224.685737,61.3831135 224.68918,119.475059 C224.692623,177.567005 177.604414,224.663588 119.512468,224.670475 C61.420523,224.677362 14.3211482,177.591946 14.3108171,119.500001 C14.3726605,61.4282256 61.428236,14.3642816 119.499999,14.2921116 L119.499999,14.2921116 Z M119.499999,1.4668085e-06 C53.5019721,1.46680849e-06 8.08039513e-15,53.5019735 0,119.500001 C-8.08039513e-15,185.498028 53.5019721,239 119.499999,239 C185.498026,239 238.999999,185.498028 238.999999,119.500001 C239.004961,87.8051092 226.416413,57.4069333 204.00474,34.9952603 C181.593067,12.5835873 151.194891,-0.00496132847 119.499999,1.4668085e-06 L119.499999,1.4668085e-06 Z" id="Asset-2@3x"></path>
                </g>
                <path d="M329.386,138.98 L329.386,179.638 C329.386,181.294854 328.042854,182.638 326.386,182.638 L304,182.638 C302.343146,182.638 301,181.294854 301,179.638 L301,69.106 C301,67.4491458 302.343146,66.106 304,66.106 L346.982,66.106 L346.982,66.106 C360.483401,66.106 370.996629,69.5919651 378.522,76.564 C386.047371,83.5360349 389.81,91.9466174 389.81,101.796 C389.81,108.5467 387.762687,115.131301 383.668,121.55 C379.573313,127.968699 372.878046,132.505987 363.582,135.162 L390.311309,179.607246 C390.880579,180.553822 390.574711,181.782658 389.628135,182.351927 C389.316898,182.539105 388.960567,182.638 388.597382,182.638 L360.663946,182.638 C359.593278,182.638 358.60376,182.067396 358.06745,181.140734 L333.537513,138.756728 C333.022887,137.867533 332.073379,137.32 331.046,137.32 C330.129207,137.32 329.386,138.063207 329.386,138.98 Z M329.386,87.686 L329.386,115.74 L346.982,115.74 C351.298022,115.74 354.700988,114.467346 357.191,111.922 C359.681012,109.376654 360.926,106.029021 360.926,101.879 C360.926,97.7289792 359.653346,94.3260133 357.108,91.67 C354.562654,89.0139867 351.187354,87.686 346.982,87.686 L329.386,87.686 Z M457.528,153.256 C461.622687,149.27198 463.67,143.628037 463.67,136.324 C463.67,129.019963 461.622687,123.403686 457.528,119.475 C453.433313,115.546314 448.730026,113.582 443.418,113.582 C438.105973,113.582 433.402687,115.57398 429.308,119.558 C425.213313,123.54202 423.166,129.185963 423.166,136.49 C423.166,143.794037 425.213313,149.410314 429.308,153.339 C433.402687,157.267686 438.105973,159.232 443.418,159.232 C448.730026,159.232 453.433313,157.24002 457.528,153.256 Z M406.566,170.52 C398.376626,161.666622 394.282,150.323403 394.282,136.49 C394.282,122.656597 398.376626,111.285711 406.566,102.377 C414.755374,93.4682888 424.742941,89.014 436.529,89.014 C448.315059,89.014 457.361968,93.3852896 463.67,102.128 L463.67,93.01 C463.67,91.3531458 465.013146,90.01 466.67,90.01 L489.056,90.01 C490.712854,90.01 492.056,91.3531458 492.056,93.01 L492.056,179.638 C492.056,181.294854 490.712854,182.638 489.056,182.638 L466.67,182.638 C465.013146,182.638 463.67,181.294854 463.67,179.638 L463.67,169.192 L463.67,169.192 C456.808632,178.930715 447.623391,183.8 436.114,183.8 C424.604609,183.8 414.755374,179.373378 406.566,170.52 Z M529.052,79.552 C525.84265,82.7613494 521.914023,84.366 517.266,84.366 C512.617976,84.366 508.689349,82.7613494 505.48,79.552 C502.27065,76.3426506 500.666,72.3863568 500.666,67.683 C500.666,62.9796431 502.27065,59.0233494 505.48,55.814 C508.689349,52.6046506 512.617976,51 517.266,51 C521.914023,51 525.84265,52.6046506 529.052,55.814 C532.261349,59.0233494 533.866,62.9796431 533.866,67.683 C533.866,72.3863568 532.261349,76.3426506 529.052,79.552 Z M503.156,179.638 L503.156,93.01 C503.156,91.3531458 504.499145,90.01 506.156,90.01 L528.542,90.01 C530.198854,90.01 531.542,91.3531458 531.542,93.01 L531.542,179.638 C531.542,181.294854 530.198854,182.638 528.542,182.638 L506.156,182.638 C504.499145,182.638 503.156,181.294854 503.156,179.638 Z M572.027999,93.01 L572.027999,103.622 L572.027999,103.622 C577.893362,93.8832846 587.244602,89.014 600.081999,89.014 C610.706053,89.014 619.3103,92.5552979 625.894999,99.638 C632.479699,106.720702 635.771999,116.348606 635.771999,128.522 L635.771999,179.638 C635.771999,181.294854 634.428854,182.638 632.771999,182.638 L610.551999,182.638 C608.895145,182.638 607.551999,181.294854 607.551999,179.638 L607.551999,132.34 L607.551999,132.34 C607.551999,126.36397 605.975015,121.743683 602.820999,118.479 C599.666984,115.214317 595.32336,113.582 589.789999,113.582 C584.256638,113.582 579.913015,115.214317 576.758999,118.479 C573.604984,121.743683 572.027999,126.36397 572.027999,132.34 L572.027999,179.638 C572.027999,181.294854 570.684854,182.638 569.027999,182.638 L546.641999,182.638 C544.985145,182.638 543.641999,181.294854 543.641999,179.638 L543.641999,93.01 C543.641999,91.3531458 544.985145,90.01 546.641999,90.01 L569.027999,90.01 C570.684854,90.01 572.027999,91.3531458 572.027999,93.01 Z M706.481999,153.256 C710.576686,149.27198 712.623999,143.628037 712.623999,136.324 C712.623999,129.019963 710.576686,123.403686 706.481999,119.475 C702.387312,115.546314 697.684026,113.582 692.371999,113.582 C687.059973,113.582 682.356686,115.57398 678.261999,119.558 C674.167312,123.54202 672.119999,129.185963 672.119999,136.49 C672.119999,143.794037 674.167312,149.410314 678.261999,153.339 C682.356686,157.267686 687.059973,159.232 692.371999,159.232 C697.684026,159.232 702.387312,157.24002 706.481999,153.256 Z M655.519999,170.52 C647.330625,161.666622 643.235999,150.323403 643.235999,136.49 C643.235999,122.656597 647.330625,111.285711 655.519999,102.377 C663.709374,93.4682888 673.69694,89.014 685.482999,89.014 C697.269058,89.014 706.315968,93.3852896 712.623999,102.128 L712.623999,93.01 C712.623999,91.3531458 713.967145,90.01 715.623999,90.01 L738.009999,90.01 C739.666853,90.01 741.009999,91.3531458 741.009999,93.01 L741.009999,179.638 C741.009999,181.294854 739.666853,182.638 738.009999,182.638 L715.623999,182.638 C713.967145,182.638 712.623999,181.294854 712.623999,179.638 L712.623999,169.192 L712.623999,169.192 C705.762632,178.930715 696.57739,183.8 685.067999,183.8 C673.558608,183.8 663.709374,179.373378 655.519999,170.52 Z" id="Raina" fill="#FFFFFF"></path>
            </g>
        </g>
    </g>
</svg>