<svg id="Group_2_Copy" data-name="Group 2 Copy" xmlns="http://www.w3.org/2000/svg" width="199.286" height="46.637" viewBox="0 0 199.286 46.637">
  <path id="Combined_Shape" data-name="Combined Shape" d="M81.557,46.565A1.658,1.658,0,0,1,80.32,45.21a5.025,5.025,0,0,1,.026-1.836,16.36,16.36,0,0,1,.521-2.158,24.51,24.51,0,0,1,.863-2.378c.114-.262.4-1,1.093-3.048.731-2.153,1.4-4.124,2.041-6.026.859-2.537,1.669-4.953,2.475-7.385.951-2.862,1.706-5.113,2.446-7.3.8-2.36,1.413-4.234,1.883-5.727.646-2.051.817-2.558.894-2.74.194-.65.368-1.279.517-1.871.364-1.472,1.339-1.632,1.742-1.632a4.285,4.285,0,0,1,.964.115,2.532,2.532,0,0,1,1.115.6,3.358,3.358,0,0,1,.8,1.245,5.618,5.618,0,0,1,.309,2.053,14.9,14.9,0,0,0,.3,2.149c.2,1.12.46,2.484.8,4.172.327,1.615.711,3.439,1.141,5.422.418,1.905.864,3.939,1.332,6.021.472,2.11.916,4.046,1.359,5.92.371,1.575.8,3.419,1.21,5.159.378,1.647.644,2.835.837,3.74.24,1.135.322,1.465.347,1.554l.033.133c.031.194.075.418.142.727a2.941,2.941,0,0,1,.046,1.115,3.589,3.589,0,0,1-.327,1.03,2.006,2.006,0,0,1-1.139.971,2.3,2.3,0,0,1-.817.156,2,2,0,0,1-.688-.122,2.927,2.927,0,0,1-1.113-.724,4.76,4.76,0,0,1-.789-1.053,4.813,4.813,0,0,1-.486-1.206,7.674,7.674,0,0,1-.2-1.029l-.741-4.56c-.131-.782-.257-1.544-.393-2.4-.3,0-.7.012-1.222.031-.576.02-1.221.07-1.919.149-.749.085-1.515.149-2.277.192-1.6.128-3.016.251-4.2.368a8.96,8.96,0,0,0-1.3.2c-.489,1.958-.817,3.249-1.034,4.06-.318,1.2-.413,1.489-.461,1.61-.131.393-.306.9-.519,1.5a12.148,12.148,0,0,1-.9,1.972A6.152,6.152,0,0,1,83.7,46.015a2.368,2.368,0,0,1-1.574.622A2.3,2.3,0,0,1,81.557,46.565ZM94.448,14.9c-.472,1.109-1.006,2.523-1.589,4.2s-1.208,3.6-1.849,5.712c-.545,1.8-1.087,3.642-1.613,5.472h.1c.082,0,.184,0,.33-.007.464-.019,1.042-.05,1.717-.093.708-.046,1.361-.106,2-.184,1.423-.122,2.7-.238,3.793-.343.227-.02.431-.043.625-.072-.31-1.753-.645-3.577-1.027-5.576-.392-2.048-.775-3.886-1.139-5.464s-.707-2.876-1.031-3.874c-.017-.053-.034-.1-.051-.153l-.022-.065-.021-.061C94.611,14.531,94.535,14.7,94.448,14.9ZM37.107,43.36a5.446,5.446,0,0,1-.352-1.832c-.064-.817-.105-2.028-.124-3.6-.024-1.533-.014-3.511.031-6.049.047-2.778.108-5.81.183-9.011l.125-6.611c.042-2.334.063-4.288.063-5.977V5.625c0-1.589-.037-2.182-.058-2.394a1.969,1.969,0,0,1,.36-1.48,2.4,2.4,0,0,1,1.009-.731A4.626,4.626,0,0,1,39.4.755a7.48,7.48,0,0,0,.865-.169A15.234,15.234,0,0,1,41.989.407c.3-.021.619-.031.941-.031A21.438,21.438,0,0,1,45.142.5a17.42,17.42,0,0,1,3.871.913,10.545,10.545,0,0,1,3.83,2.39,12.064,12.064,0,0,1,2.77,4.369,17.545,17.545,0,0,1,.925,6.793,27.573,27.573,0,0,1-1.19,7.447,15.482,15.482,0,0,1-2.595,4.927,10.958,10.958,0,0,1-3.588,2.92,16.923,16.923,0,0,1-2.353.954c1.849,1.005,3.534,1.877,5.009,2.592,2.7,1.308,3.123,1.569,3.262,1.654l.007,0a1.9,1.9,0,0,1,.8,1.718,3.861,3.861,0,0,1-.433,1.594,3.233,3.233,0,0,1-1.176,1.259,2.049,2.049,0,0,1-1.082.32,1.968,1.968,0,0,1-.812-.177,9.768,9.768,0,0,1-1.7-1c-.881-.592-1.832-1.244-2.828-1.936q-1.609-1.118-3.436-2.392L41.469,32.8c-.013.149-.023.342-.035.647-.038.949-.076,2.02-.122,3.472l0,.08-.007.2v.008c-.034,1.026-.074,2.19-.118,3.318a6.221,6.221,0,0,1-.338,2.43A2.316,2.316,0,0,1,38.7,44.41,1.7,1.7,0,0,1,37.107,43.36Zm4.08-37.305v.069c0,.1.008.514.024,1.364l.006.356c.024,1.149.046,2.613.064,3.788v.006l.061,4.846c.018,1.659.049,3.273.094,4.8.041,1.48.07,2.7.092,3.731l.014.842.009.423,0,.165c0,.068,0,.122,0,.16s0,.061,0,.075c0,.093.009.231.026.412a1.274,1.274,0,0,0,.075.347.533.533,0,0,0,.142.026.412.412,0,0,0,.05,0,12.158,12.158,0,0,0,1.265-.125,12.358,12.358,0,0,0,2.029-.466,11.284,11.284,0,0,0,2.388-1.1,8.337,8.337,0,0,0,2.25-2A11.225,11.225,0,0,0,51.5,20.5a16.154,16.154,0,0,0,.757-4.955,14.9,14.9,0,0,0-.634-4.766A7.3,7.3,0,0,0,50,7.992a6.162,6.162,0,0,0-2.176-1.453,9.507,9.507,0,0,0-2.389-.572c-.467-.044-.9-.067-1.292-.067-.3,0-.582.013-.839.038-1.094.1-1.564.106-1.845.109h-.009C41.334,6.048,41.26,6.049,41.187,6.055Zm71.154,38.288a5.142,5.142,0,0,1-1.831-.561,2.464,2.464,0,0,1-1.113-2.216c0-.212.03-1.16.092-2.957V38.6c.064-1.85.137-4.044.216-6.519.089-2.785.179-5.516.277-8.352.127-3.71.211-6.235.279-8.445.07-2.261.133-4.245.192-6.053V9.22l.024-.763c.076-2.335.06-3.082.034-3.3-.105-1.454.173-2.413.851-2.932a3.245,3.245,0,0,1,2.024-.669,12.409,12.409,0,0,1,2.732.426,27.613,27.613,0,0,1,4.859,1.888,12.44,12.44,0,0,1,4.96,4.055,18.945,18.945,0,0,1,2.816,5.85,28.117,28.117,0,0,1,1.056,6.789,36.826,36.826,0,0,1-.412,6.962,32.093,32.093,0,0,1-1.654,6.345,20.77,20.77,0,0,1-2.614,4.986,11.081,11.081,0,0,1-3.486,3.062,20.485,20.485,0,0,1-3.8,1.649,16.1,16.1,0,0,1-3.426.718c-.661.058-1.184.087-1.554.087A3.38,3.38,0,0,1,112.341,44.343Zm2.966-35.134c-.146,1.643-.271,3.667-.372,6.018-.1,2.293-.2,4.831-.308,7.758-.1,2.759-.165,5.374-.186,7.77s-.019,4.465,0,6.131a20.271,20.271,0,0,0,.107,2.279,1.809,1.809,0,0,0,.324.026,5.983,5.983,0,0,0,1.675-.305,10.059,10.059,0,0,0,2.133-.976,12.176,12.176,0,0,0,2.171-1.656,11.413,11.413,0,0,0,2.722-4.606,27.367,27.367,0,0,0,1.409-6.809,27.81,27.81,0,0,0-.391-7.352,17.526,17.526,0,0,0-2.5-6.43,7.766,7.766,0,0,0-1.9-1.985,10.074,10.074,0,0,0-2.253-1.263,7.613,7.613,0,0,0-1.915-.507c-.1-.009-.2-.014-.284-.017l-.044,0c-.058,0-.114,0-.171-.007C115.475,7.581,115.4,8.162,115.307,9.209Zm47.8,34.8a1.664,1.664,0,0,1-.846-1.755l.369-39.74a1.425,1.425,0,0,1,.94-1.322,3.777,3.777,0,0,1,2.565-.061A1.852,1.852,0,0,1,167.2,1.8l.144.212v.259q0,.042-.011.224a6.818,6.818,0,0,1,1.48-1.005,6.161,6.161,0,0,1,2.54-.621c.149,0,.284-.006.42-.006a8.523,8.523,0,0,1,2.875.459,9.065,9.065,0,0,1,2.559,1.4,8.879,8.879,0,0,1,1.915,2.092q.246.377.47.768c.078-.171.158-.339.233-.507A9.272,9.272,0,0,1,181.089,3.1a5.924,5.924,0,0,1,2.02-1.522,8.636,8.636,0,0,1,3.083-.7c.219-.013.418-.018.611-.018a6.771,6.771,0,0,1,3.672.923,7.745,7.745,0,0,1,2.532,2.573,12,12,0,0,1,1.334,3.278q.4,1.64.77,3.064c.217.908.464,2.251.76,4.117q.433,2.742.9,6.07t.929,6.9q.466,3.575.807,6.529t.554,4.91c.223,2.016.223,2.089.223,2.177a2.195,2.195,0,0,1-.731,1.847,1.966,1.966,0,0,1-1.609.379,3.393,3.393,0,0,1-1.39-.571,1.953,1.953,0,0,1-.912-1.357c-.02-.052-.077-.369-.284-2.291q-.215-2.02-.526-5l-.68-6.489c-.248-2.336-.518-4.605-.8-6.746-.29-2.159-.581-4.137-.864-5.874a33.614,33.614,0,0,0-.781-3.776c-.2-.647-.428-1.361-.676-2.124a16.223,16.223,0,0,0-.822-2.066,5.638,5.638,0,0,0-1.047-1.513,1.742,1.742,0,0,0-1.159-.529l-.266,0a3.8,3.8,0,0,0-1.87.4,3.361,3.361,0,0,0-1.27,1.248,6.832,6.832,0,0,0-.765,2.128,18.461,18.461,0,0,0-.324,2.875c-.205,3.461-.321,6.35-.34,8.611s-.031,4.091-.031,5.455.009,2.374.031,3.049a10.066,10.066,0,0,1-.04,1.606,2.081,2.081,0,0,1-1.039,1.391,3.57,3.57,0,0,1-1.408.445,2.756,2.756,0,0,1-1.547-.273,1.756,1.756,0,0,1-.959-1.684c-.042-1.23-.02-2.665.064-4.236q.124-2.322.218-4.86c.059-1.629.079-3.341.061-5.084a29.166,29.166,0,0,0-.452-4.8,12,12,0,0,0-.608-2.053,10.3,10.3,0,0,0-1.089-2.1,6.1,6.1,0,0,0-1.5-1.559,2.78,2.78,0,0,0-1.674-.555l-.32-.007a3.962,3.962,0,0,0-1.907.4,3.458,3.458,0,0,0-1.327,1.281,7.285,7.285,0,0,0-.829,2.144,20.2,20.2,0,0,0-.416,2.858c-.326,4.049-.513,7.894-.554,11.435s-.02,6.674.064,9.341q.12,4.027.245,6.567a22.81,22.81,0,0,1,.056,3.142,2.076,2.076,0,0,1-1.088,1.4,3.9,3.9,0,0,1-1.459.435,3.212,3.212,0,0,1-.321.015A2.608,2.608,0,0,1,163.11,44.007Zm-140.6.278a3.663,3.663,0,0,1-1.675-.562,1.831,1.831,0,0,1-.914-1.789,19.488,19.488,0,0,0,.027-2.1c-.021-1.034-.049-2.1-.092-3.34s-.094-2.278-.153-3.2a13.647,13.647,0,0,0-.144-1.474c-1.19-.044-13.451-.066-14.2-.066-.422,0-2,.012-2.446.029-.1.006-.2.009-.3.009a4.051,4.051,0,0,1-1.08-.134,1.95,1.95,0,0,1-1.193-1A2.9,2.9,0,0,1,0,29.286a2.537,2.537,0,0,1,.37-1.337,1.758,1.758,0,0,1,1.585-.807c.419,0,.857.01,1.336.031.459.023,2.048.031,2.414.031,1.066,0,13.542-.035,14.154-.086l.024-.006.011,0c.018-.246.028-.652.028-1.174,0-1.06-.01-2.367-.031-4-.017-1.235-.034-2.706-.061-5.249-.022-1.871-.012-3.72.031-5.495.039-1.693.112-3.275.218-4.7a9.937,9.937,0,0,1,.6-3.143,5.552,5.552,0,0,1,1.657-2.128A5.715,5.715,0,0,1,24.371.243,8.31,8.31,0,0,1,26.334,0H27.88a1.911,1.911,0,0,1,1.677.963,3.08,3.08,0,0,1,.464,1.618,3.339,3.339,0,0,1-.335,1.493,1.671,1.671,0,0,1-1.559.966c-.3-.017-.589-.026-.886-.026-.4,0-.77.016-1.173.052a1.517,1.517,0,0,0-1.158.684A6.886,6.886,0,0,0,24.7,7.332c-.083,1.121-.145,2.5-.184,4.089s-.061,3.329-.061,5.166V21.71c0,1.569.021,2.9.061,3.945.031.826.059,1.247.076,1.453a1.2,1.2,0,0,0,.188.044,10.332,10.332,0,0,0,1.719.114c.44,0,.916-.015,1.264-.026l.073,0,.05,0c.551-.022.979-.033,1.237-.033.342,0,.965.148,1.292,1.136a4.01,4.01,0,0,1,.2,1.488,3.156,3.156,0,0,1-.465,1.522,1.7,1.7,0,0,1-1.5.837,1.913,1.913,0,0,1-.225-.012L27,32.053c-.392-.035-.795-.061-1.391-.093-.236-.009-.436-.013-.616-.013s-.346,0-.5.013h-.044c0,.177.006.446.026.779.065.935.158,1.99.278,3.135.123,1.181.257,2.356.4,3.492a23.956,23.956,0,0,1,.226,2.649,2.053,2.053,0,0,1-1.057,1.889,3.108,3.108,0,0,1-1.517.392C22.725,44.3,22.632,44.294,22.514,44.285ZM67.1,44.259c-1.029-.02-1.931-.064-2.682-.13a3.987,3.987,0,0,1-1.787-.394c-.454-.226-.657-.821-.865-2.546-.143-1.173-.276-2.7-.407-4.672s-.252-4.128-.369-6.407c-.122-2.3-.217-4.768-.283-7.324-.063-2.58-.115-5.047-.155-7.332-.041-2.4-.041-4.6,0-6.524.043-1.952.1-3.508.188-4.757.122-1.8.31-2.308.612-2.616A5.2,5.2,0,0,1,64.36.718C65.315.644,66.338.606,67.4.606c.443,0,.886.006,1.316.018,1.535.041,2.96.126,4.236.252a6.392,6.392,0,0,1,2.546.49,2.186,2.186,0,0,1,.64.664,2.872,2.872,0,0,1,.387.856,2,2,0,0,1,0,1.12,1.489,1.489,0,0,1-1.1,1,8.787,8.787,0,0,1-1.989.218c-.922.043-1.847.083-2.911.125-.977.039-1.947.11-2.881.211a8.187,8.187,0,0,0-1.432.255,7.394,7.394,0,0,0-.275,1.328c-.161,1.111-.305,2.492-.427,4.1-.124,1.654-.206,3.416-.244,5.234s-.061,3.584-.061,5.262c0,1.6.041,2.967.122,4.069a11.035,11.035,0,0,0,.126,1.125c.057,0,.131.006.256.006.279,0,.634-.016,1-.046,1.031-.085,2.147-.188,3.32-.309s2.322-.2,3.381-.222l.207,0c.851,0,1.882.094,2.3.829a2.918,2.918,0,0,1,.4,2.237,2.383,2.383,0,0,1-1.342,1.807,3.745,3.745,0,0,1-1.272.159c-.252,0-.549-.008-.935-.026-.977-.039-2.012-.07-3.078-.092l-.59-.006c-.834,0-1.625.032-2.351.1a3.5,3.5,0,0,0-.914.168,8.3,8.3,0,0,0-.177,1.294,18.617,18.617,0,0,0-.032,2.345,14.682,14.682,0,0,0,.263,2.2,2.724,2.724,0,0,0,.206.678,11.227,11.227,0,0,0,1.708.173c1.136.063,2.348.124,3.707.186,1.257.059,2.5.142,3.692.25a5.346,5.346,0,0,1,2.425.54,2.85,2.85,0,0,1,.873,1.165,4.047,4.047,0,0,1,.276,1.186,2.963,2.963,0,0,1-.176,1.229,1.69,1.69,0,0,1-.935,1.012l-.108.035a10.393,10.393,0,0,1-1.431.177c-.707.063-1.55.115-2.577.158-.984.042-2.033.073-3.208.094-.564.01-1.126.015-1.67.015S67.626,44.269,67.1,44.259Zm75.123-.234a8.969,8.969,0,0,1-3.791-1.911,7.17,7.17,0,0,1-1.867-3.034,25.875,25.875,0,0,1-1.154-4.591,54.859,54.859,0,0,1-.63-5.709c-.124-2.038-.177-4.137-.157-6.239.022-2.123.118-4.223.284-6.242a55.033,55.033,0,0,1,.722-5.611,30.332,30.332,0,0,1,1.114-4.38,5.837,5.837,0,0,1,1.709-2.781,11.014,11.014,0,0,1,3.812-1.913,12.783,12.783,0,0,1,3.367-.456c.269,0,.541.009.809.026a12.822,12.822,0,0,1,4.17.991,14.632,14.632,0,0,1,3.745,2.308,8.546,8.546,0,0,1,2.533,4.569,30.434,30.434,0,0,1,.829,6.519,51.311,51.311,0,0,1-.378,7.484c-.311,2.582-.723,5.063-1.22,7.372a46.5,46.5,0,0,1-1.735,6.17,11.761,11.761,0,0,1-2.062,3.884,11.849,11.849,0,0,1-2.815,2.292,10.49,10.49,0,0,1-3.5,1.317,9.543,9.543,0,0,1-1.706.154A10.3,10.3,0,0,1,142.223,44.025Zm1.139-37.846a3.664,3.664,0,0,0-1.62,1.013,7.309,7.309,0,0,0-1.345,3.253,41.266,41.266,0,0,0-.878,5.931c-.182,2.244-.274,4.645-.274,7.138,0,2.511.1,4.855.3,6.966a41.826,41.826,0,0,0,.848,5.506c.444,1.882.924,2.315,1.061,2.4a5.838,5.838,0,0,0,4.006,1.054,4.873,4.873,0,0,0,3.511-2.433,12.349,12.349,0,0,0,1.2-2.779,48.524,48.524,0,0,0,1.369-5c.428-1.937.787-4.011,1.066-6.167a42.579,42.579,0,0,0,.368-6.3,22.275,22.275,0,0,0-.746-5.474,6.7,6.7,0,0,0-2.1-3.515,7.744,7.744,0,0,0-2.184-1.3,8.428,8.428,0,0,0-2.389-.536c-.153-.01-.307-.015-.473-.015A5.693,5.693,0,0,0,143.361,6.179Z" fill="#fff"/>
</svg>
